<svg width="360" height="404" viewBox="0 0 487 547" fill="none" xmlns="http://www.w3.org/2000/svg">
<path fill-rule="evenodd" clip-rule="evenodd" d="M189.938 0.017347C195.036 -0.164738 204.504 1.10986 210.877 2.74862C217.432 4.38738 228.539 8.57535 235.459 12.217C243.835 16.5871 253.303 23.8704 262.953 33.5209C271.147 41.5327 281.162 52.8219 292.815 69.0275L306.108 62.8366C313.391 59.377 325.409 54.8249 332.874 52.8219C340.522 50.6369 351.993 48.4519 358.366 47.9057C365.103 47.3594 375.482 47.7235 382.037 48.9981C388.592 50.0906 398.789 53.1861 404.798 55.5532C410.806 58.1024 419.911 63.2008 424.827 66.8425C430.289 71.0304 437.937 79.7705 443.764 88.1464C449.59 97.2506 455.053 108.176 457.966 117.28C461.426 127.841 462.883 136.945 463.429 150.419C463.793 160.798 464.521 170.995 465.068 173.18C465.796 176.275 468.527 178.096 486.736 184.105L476.721 187.565C471.259 189.386 466.706 191.024 466.706 191.024C466.706 190.842 465.614 194.666 463.975 199.4C462.518 203.952 460.698 208.14 459.969 208.504C459.241 208.869 458.513 208.322 458.513 207.412C458.513 206.319 457.966 205.955 457.238 206.319C456.51 206.684 455.235 209.779 454.325 213.057C453.596 216.516 450.865 224.528 448.134 231.083C445.585 237.638 440.304 248.199 436.48 254.754C430.471 264.587 429.197 268.592 428.469 278.789C427.922 286.801 426.101 294.266 423.188 299.729C420.821 304.463 414.084 313.203 408.257 318.848C400.063 326.677 396.968 331.23 395.147 337.967C393.872 342.701 389.32 352.351 385.132 359.271C380.944 366.19 371.84 377.297 364.739 383.852C356.727 391.5 349.444 396.78 344.71 398.055C340.704 399.329 335.241 400.422 332.51 400.422C329.779 400.422 327.411 401.15 327.411 402.243C327.411 403.153 329.232 405.52 331.599 407.523C334.149 409.708 337.244 416.627 340.34 427.006C344.71 442.483 345.256 443.212 351.265 445.215C355.999 446.671 358.548 449.038 361.461 455.229C364.011 459.964 366.378 470.16 367.834 480.539C368.927 490.007 370.93 498.93 371.84 500.386C372.933 501.843 374.207 507.488 374.571 513.132C374.936 518.777 376.028 523.875 377.303 524.604C378.395 525.332 382.219 525.878 385.679 525.696C389.32 525.696 397.514 526.607 403.887 527.699C410.442 528.974 417.179 530.248 419 530.612C420.639 531.159 422.096 532.797 422.096 534.254C422.096 535.893 419.182 537.714 414.448 538.988C410.078 540.081 400.61 541.537 392.962 542.448C385.497 543.358 366.742 544.633 351.083 545.543C335.605 546.272 296.275 547 263.682 547C231.271 547 190.666 546.272 173.55 545.543C156.616 544.815 135.312 543.358 126.208 542.266C117.286 541.173 108.181 540.081 106.179 539.899C104.176 539.535 100.716 538.442 98.5309 537.167C96.1638 536.075 94.343 534.254 94.343 533.344C94.343 532.251 96.7101 530.977 99.4414 530.43C102.173 529.884 106.543 528.974 108.91 528.609C111.459 528.245 116.193 527.517 119.471 526.971C124.751 526.06 125.479 525.15 126.39 519.141C126.936 515.499 128.211 510.401 129.121 507.852C130.214 505.303 134.766 500.386 139.5 496.927C144.052 493.467 152.428 488.187 158.073 485.273C163.535 482.36 171.365 477.808 175.371 475.077C179.377 472.345 188.845 463.423 196.31 455.229C206.871 443.94 211.059 440.298 214.701 440.48C217.25 440.48 219.981 439.752 220.528 439.024C221.074 438.295 220.346 434.107 219.071 429.555C217.614 425.003 216.522 416.809 216.522 411.347C216.522 405.884 214.883 395.505 212.88 388.586C210.877 381.485 209.056 375.658 209.056 375.294C209.056 375.112 204.868 373.109 199.588 370.924C194.308 368.557 184.839 362.912 178.648 358.178C168.634 350.348 166.995 349.802 165.72 352.533C164.264 355.265 163.899 354.718 162.989 349.802C162.079 345.432 160.44 343.429 156.252 342.155C152.61 340.941 151.093 339.423 151.7 337.603C152.246 335.964 147.512 328.68 139.682 319.758C132.581 311.564 122.202 297.908 116.375 289.35C110.731 280.792 102.173 266.043 97.6205 256.575C90.155 241.644 87.6059 238.184 78.5016 231.265C72.6749 226.895 63.5707 217.791 57.926 210.872C52.4635 203.952 43.9055 189.568 38.8071 179.189C30.6133 161.891 28.9746 159.706 21.6912 156.064C17.1391 153.697 11.8586 149.509 9.85567 146.596C7.30648 143.318 5.8498 137.856 5.48563 131.118C5.12146 125.474 3.66478 117.644 2.2081 113.638C0.751421 109.632 -0.158998 102.713 0.0230871 98.161C0.569342 90.6955 1.29768 89.6031 7.48856 86.6897C12.5869 84.3226 14.0436 82.6838 13.3153 80.3167C12.769 78.678 11.1302 72.6692 9.67357 67.2066C8.21689 61.7441 6.76023 53.7324 6.21397 49.3623C5.66772 45.1744 6.03188 38.2552 6.9423 33.8851C7.85272 29.5151 10.4019 24.7809 12.769 22.96C15.1361 21.1392 19.142 19.6825 21.5091 19.6825C24.0583 19.6825 27.5179 21.1392 29.1567 22.96C30.6133 24.7809 33.1625 28.2405 34.4371 30.7897C35.7117 33.3389 38.9892 43.8998 46.4547 73.5796L49.7322 63.5649C51.5531 58.1024 55.741 48.2698 59.0186 41.7147C62.114 35.1597 67.3945 27.148 70.672 23.8705C73.9495 20.4109 78.1375 18.0437 80.8687 18.0437C83.2358 18.0437 87.4238 20.0467 89.7909 22.5958C93.4326 26.0555 94.343 28.9688 94.343 35.3418C94.343 40.2581 91.9759 49.9086 88.3342 59.377C84.8746 68.1171 81.2329 79.5884 80.1404 84.8689C78.8658 90.1493 77.9554 96.5223 77.9554 99.0714C77.9554 101.621 78.8658 103.624 79.7762 103.624C80.8687 103.624 83.4179 97.979 85.6029 91.2418C87.6059 84.5047 92.5221 72.8512 96.3459 65.3858C100.17 57.9203 107.817 46.6311 113.098 40.2581C118.378 34.0672 127.118 25.6913 132.581 21.5034C138.225 17.3154 146.783 11.8529 151.7 9.30368C156.798 6.75449 165.356 3.65908 170.819 2.38448C176.463 1.10989 185.021 0.017347 189.938 0.017347ZM30.4312 264.951C30.7954 266.954 32.07 269.503 33.1625 270.777C34.255 272.052 36.8042 273.145 38.8071 272.962C41.7205 272.962 41.1742 273.691 36.6221 276.604C33.3446 278.607 30.6133 281.702 30.6133 283.341C30.6133 285.89 29.885 285.526 28.0641 282.067C26.6075 279.517 23.1478 276.604 15.1361 273.327L21.1449 272.234C25.3329 271.506 26.9716 270.231 26.7895 267.682C26.6075 265.861 27.1537 263.858 28.0641 263.13C28.9746 262.219 29.885 263.13 30.4312 264.951Z" fill="#2C2C2C"/>
<path d="M451.774 183.013C455.416 182.284 457.055 180.463 457.965 176.458C458.511 173.544 459.786 171.541 460.878 172.087C461.789 172.634 462.517 174.637 462.335 176.64C462.153 178.825 464.156 181.01 473.989 185.198L468.162 186.29C463.792 187.018 462.153 188.293 462.153 191.024C462.153 193.027 461.425 195.03 460.332 195.576C459.422 196.123 458.147 194.484 457.601 191.935C457.055 189.021 454.87 186.836 446.676 184.105L451.774 183.013Z" fill="#EFEDDB"/>
<path d="M300.098 419.541C307.381 419.541 312.661 418.084 319.217 414.806C325.954 411.165 328.867 410.436 330.506 412.075C331.962 413.168 335.422 423.546 338.517 435.018C341.613 446.489 344.344 457.596 344.526 459.417C344.526 461.602 342.888 463.969 340.156 465.426C337.243 466.883 332.873 467.429 328.321 466.701C324.315 465.972 319.399 464.698 317.396 463.605C315.393 462.695 310.841 459.235 307.381 456.322C303.921 453.226 297.73 449.221 293.725 447.4C289.719 445.761 284.256 444.122 281.525 444.122C277.701 444.122 275.88 442.847 274.424 439.024C273.331 436.292 271.874 430.102 270.054 416.263L280.068 417.902C285.531 418.812 294.635 419.541 300.098 419.541Z" fill="#EFEDDB"/>
<path d="M223.44 433.561C222.347 430.83 221.073 424.821 220.527 419.905C219.434 412.257 219.798 411.347 222.894 411.529C224.714 411.529 232.362 412.621 239.645 413.896C250.571 415.899 254.212 415.717 259.675 413.896C263.316 412.439 266.594 411.347 266.958 411.347C267.14 411.347 266.958 414.806 266.594 418.994C266.23 423.364 266.958 430.466 268.415 435.018C269.872 439.57 270.964 443.394 270.964 443.576C270.964 443.94 269.143 444.122 266.958 444.122C264.591 444.122 261.131 445.215 259.129 446.671C255.851 448.856 254.394 448.674 245.472 443.94C240.01 441.027 233.272 438.66 230.541 438.66C226.717 438.66 224.897 437.385 223.44 433.561Z" fill="#EFEDDB"/>
<path d="M221.437 449.403C209.237 449.038 207.781 448.856 213.607 447.764C217.613 447.035 223.986 446.307 227.81 446.125C233.09 445.943 236.004 447.218 241.466 452.134C245.108 455.593 247.657 459.053 246.929 459.963C246.2 460.692 243.469 458.689 240.92 455.411C236.55 449.767 236.004 449.585 221.437 449.403Z" fill="#EFEDDB"/>
<path d="M270.6 454.501C261.496 455.411 257.672 455.229 258.582 453.955C259.129 452.862 265.501 451.77 272.603 451.77C284.985 451.405 285.895 451.77 292.45 457.596C297.184 461.966 300.462 463.605 303.375 463.059C305.56 462.695 307.381 463.241 307.381 464.151C307.381 465.062 305.378 466.336 302.829 466.883C300.098 467.429 296.092 471.071 292.814 475.441C289.901 479.811 288.08 483.999 288.808 484.909C289.537 485.82 296.274 486.184 303.739 485.637C311.205 485.091 319.399 485.273 321.948 486.184C324.497 486.912 327.957 489.825 329.777 492.375C331.416 494.924 332.873 498.383 332.873 500.022C332.873 502.025 330.688 500.022 322.858 487.276L294.635 488.187C269.143 489.097 265.684 488.733 258.218 485.455C252.209 482.906 247.293 481.996 239.645 482.542C232.726 483.028 229.874 482.663 231.087 481.449C232.18 480.539 237.096 479.629 242.377 479.629C248.386 479.629 255.487 481.267 262.224 484.181C271.328 488.187 273.331 488.369 277.701 486.366C282.435 484.181 282.617 483.817 279.704 480.903C278.065 479.264 273.149 475.987 268.779 473.802C264.409 471.435 257.49 469.614 253.302 469.614C248.75 469.614 245.836 468.886 246.383 467.793C246.929 466.883 249.114 465.972 251.481 465.972C253.666 465.972 258.4 466.701 261.86 467.793C265.319 468.703 271.874 471.981 276.427 474.894C281.525 478.354 285.349 479.811 286.441 478.718C287.716 477.626 287.352 475.987 285.531 473.984C284.074 472.345 279.704 469.432 276.062 467.611C272.239 465.608 265.501 463.605 260.949 462.695C256.579 461.966 253.484 460.874 254.212 460.146C254.941 459.417 259.675 459.781 264.591 460.692C269.689 461.784 277.337 465.062 290.083 473.438L297.366 465.79L283.71 453.226L270.6 454.501Z" fill="#EFEDDB"/>
<path d="M228.72 464.516C224.532 461.784 216.521 458.689 211.058 457.414L210.416 457.284C201.221 455.411 201.202 455.407 208.145 455.229C212.151 455.229 219.434 456.868 224.532 459.417C229.631 461.602 234.911 464.88 236.368 466.701C237.825 468.339 238.553 469.796 237.825 469.614C236.914 469.614 232.908 467.429 228.72 464.516Z" fill="#EFEDDB"/>
<path d="M200.861 463.969C195.217 463.969 194.306 463.605 197.22 462.331C199.223 461.42 200.861 460.692 201.043 460.692C201.043 460.516 204.945 461.528 209.638 462.745L210.148 462.877C215.064 464.151 221.801 467.065 225.079 469.25C228.174 471.435 230.723 473.62 230.541 474.166C230.177 474.53 225.079 472.527 219.07 469.432C212.697 466.336 205.049 463.969 200.861 463.969Z" fill="#EFEDDB"/>
<path d="M188.115 477.444C180.286 478.172 179.375 477.99 182.471 475.987C184.292 474.53 189.208 473.802 193.396 473.984C197.402 474.348 205.414 476.351 210.876 478.718C216.339 481.085 219.616 483.452 218.159 483.817C216.703 484.181 211.422 482.724 206.324 480.539C199.405 477.444 195.035 476.715 188.115 477.444Z" fill="#EFEDDB"/>
<path d="M355.451 494.56C356.726 491.464 359.093 486.366 360.368 483.452C361.824 480.357 363.099 479.264 363.645 480.721C364.009 482.178 362.371 487.094 360.004 492.01C357.636 496.745 355.087 500.568 354.359 500.568C353.448 500.568 353.995 497.837 355.451 494.56Z" fill="#EFEDDB"/>
<path d="M132.944 508.58C132.762 508.216 133.854 506.577 135.675 504.938C138.224 502.571 141.866 502.207 160.621 503.3C172.82 504.028 182.835 504.756 183.199 504.938C183.381 505.12 183.017 506.213 182.289 507.488C181.196 509.309 174.641 509.855 157.161 509.673C144.051 509.49 133.308 509.126 132.944 508.58Z" fill="#EFEDDB"/>
<path d="M332.873 507.67C346.347 506.577 357.818 505.303 358.183 504.938C358.547 504.574 361.278 504.21 364.191 504.21C367.469 504.21 369.29 505.12 369.29 506.941C369.29 508.944 366.376 509.855 357.818 510.583C351.628 511.129 335.786 512.404 322.858 513.314C309.748 514.225 274.606 514.953 244.562 514.953C214.518 514.953 188.48 514.407 186.477 513.678C183.745 512.586 183.563 512.04 185.566 510.037C187.569 508.216 195.217 508.034 220.891 508.944C238.917 509.673 265.866 510.219 280.979 510.037C295.91 509.855 319.399 508.944 332.873 507.67Z" fill="#EFEDDB"/>
<path d="M130.395 527.881C129.848 524.421 130.03 519.687 130.395 517.32C131.123 514.043 132.215 513.496 136.039 514.043C138.588 514.407 148.785 514.953 176.28 515.135V535.164L131.123 534.254L130.395 527.881Z" fill="#EFEDDB"/>
<path d="M325.589 517.866C338.153 517.138 352.72 516.046 358.001 515.499C363.463 514.771 368.561 514.407 369.654 514.771C370.564 515.135 371.475 518.959 371.293 523.511C371.111 531.159 370.747 531.523 364.191 533.344C360.55 534.254 350.535 535.893 341.977 536.803C333.419 537.896 318.852 538.988 309.566 539.717C294.635 540.445 292.632 540.263 291.904 537.349C291.358 535.711 289.173 531.159 283.71 520.598L293.178 519.687C298.459 519.323 313.026 518.413 325.589 517.866Z" fill="#EFEDDB"/>
<path d="M181.196 533.344C180.468 530.248 180.286 526.06 180.65 523.693L181.378 519.505L227.628 520.051C258.582 520.598 274.97 521.508 277.883 522.965C280.068 524.239 283.164 528.245 284.62 531.887C286.077 535.711 287.352 539.17 287.352 539.717C287.352 540.263 265.501 540.627 238.553 540.627C211.786 540.627 188.298 540.081 186.295 539.717C184.11 539.17 182.107 536.439 181.196 533.344Z" fill="#EFEDDB"/>
<path d="M32.7995 98.7079C34.0741 97.4333 37.5337 95.6124 40.6291 94.702C43.7245 93.7916 50.0975 92.8812 55.1959 92.8812C61.0226 92.6991 65.5747 93.6095 71.5835 98.5258L67.9418 97.2512C65.9389 96.5229 61.3868 95.6124 57.9272 95.0662C54.4675 94.702 47.9125 95.4304 43.3604 96.7049C37.5337 98.5258 34.6203 100.529 33.5278 103.624C32.4353 106.72 32.6174 109.997 34.0741 113.639C35.1666 116.552 37.8978 121.104 40.0829 123.653C42.9962 127.295 45.3633 128.206 52.4646 128.206C57.3809 128.206 61.933 128.934 62.8435 129.662C63.5718 130.573 59.3838 130.937 53.375 130.573C43.7245 130.026 42.0858 130.391 39.3545 134.032C36.9874 137.128 34.0741 138.22 29.3399 138.22C24.9698 138.402 21.3281 137.128 19.6894 135.307C17.1402 132.394 17.3223 132.211 20.5998 133.668C22.6027 134.396 26.2444 135.489 28.7936 135.853C31.889 136.399 34.4382 135.489 36.4412 132.94C39.5366 129.298 39.5366 128.752 35.1666 121.286C32.7995 117.098 30.6144 110.725 30.6144 107.266C30.4324 103.806 31.5249 99.8004 32.7995 98.7079Z" fill="#2C2C2C"/>
<path d="M437.938 246.379C442.126 238.549 447.224 226.531 449.591 219.612C451.777 212.875 453.779 207.412 454.326 207.412C454.69 207.412 454.508 210.144 453.962 213.239C453.415 216.517 450.684 224.528 448.135 231.084C445.586 237.639 440.305 248.199 436.299 254.755C430.473 264.587 429.016 268.593 428.47 278.79C427.923 286.801 426.103 294.267 423.189 299.729C420.822 304.646 414.085 313.204 408.258 318.848C400.064 326.86 396.969 331.23 395.148 337.967C393.874 342.701 390.778 350.167 388.229 354.355C385.862 358.725 383.495 362.002 382.949 361.638C382.402 361.456 384.041 357.086 386.408 352.17C388.775 347.072 391.324 340.881 391.871 337.967C392.417 335.236 392.235 333.051 391.506 333.051C390.778 333.051 389.321 333.779 388.411 334.69C387.319 335.6 376.576 341.427 364.376 347.436C351.994 353.627 340.887 358.543 339.794 358.543C338.52 358.361 346.896 353.627 358.367 347.8C369.838 342.155 384.223 333.961 390.232 329.956C396.241 325.768 404.434 318.848 408.622 314.478C412.628 310.29 418.091 303.371 420.458 299.365C424.1 293.357 424.828 289.715 424.828 277.515C424.828 264.951 424.1 261.31 419.183 251.113C415.906 244.376 409.715 235.454 404.617 230.537C399.7 225.621 393.145 220.341 390.232 218.702C387.319 217.245 385.862 215.606 387.136 215.242C388.229 215.06 393.691 218.156 398.972 222.343C404.435 226.713 411.354 233.451 414.449 237.456C417.545 241.462 421.368 248.564 423.007 253.298C424.646 258.396 426.649 261.856 428.106 261.492C429.198 261.128 433.75 254.39 437.938 246.379Z" fill="#2C2C2C"/>
<path d="M155.342 11.6713C159.347 9.85042 166.267 7.30122 170.819 6.02663C175.371 4.75203 183.383 3.65955 188.663 3.65955C193.761 3.47746 202.502 4.38789 207.782 5.4804C212.88 6.5729 220.892 9.3042 225.444 11.3071C229.996 13.3101 238.19 18.0442 243.653 21.868C249.115 25.5097 258.219 33.3394 263.682 39.1661C269.327 45.1749 277.703 55.0075 282.437 61.1984C287.171 67.5713 291.359 72.6697 291.905 72.6697C292.451 72.6697 299.917 69.3922 308.839 65.5684C317.579 61.7446 329.597 57.1925 335.605 55.7358C341.614 54.097 351.447 52.4583 357.456 51.7299C363.464 51.1837 374.025 51.5478 381.127 52.4582C388.956 53.7328 399.153 57.0104 407.529 61.0163C416.451 65.2042 424.281 70.8488 430.29 77.0397C435.388 82.3202 442.125 91.7886 445.585 98.3436C449.044 104.717 453.232 114.913 454.871 120.922C456.692 126.931 458.695 136.399 459.423 141.862C460.334 149.509 459.787 154.972 453.05 178.279L443.946 180.1C439.03 181.01 434.478 182.649 433.931 183.741C433.385 184.652 437.573 186.837 443.036 188.294C450.683 190.296 453.232 191.935 454.143 195.031C454.689 197.398 452.686 206.684 449.409 216.517C446.313 225.985 440.122 240.37 435.752 248.381C429.197 260.399 427.558 262.22 426.466 259.307C425.737 257.304 423.917 252.387 422.096 248.381C420.457 244.376 415.359 237.092 410.989 232.176C406.619 227.26 399.699 220.887 395.693 217.973C391.688 215.06 387.864 212.875 387.135 212.875C386.225 212.875 385.679 213.603 385.679 214.696C385.679 215.606 390.231 219.794 395.693 223.8C401.156 227.806 408.257 234.907 411.535 239.641C414.812 244.558 419 252.387 420.821 257.486C422.824 262.766 424.281 271.142 424.281 277.515C424.281 286.073 423.188 290.807 418.818 299.365C415.905 305.374 410.26 313.022 406.436 316.481C402.431 319.941 393.508 326.496 386.589 331.048C379.488 335.6 364.375 343.794 352.904 349.256C333.603 358.179 331.6 359.453 328.322 366.555C326.319 370.56 320.675 378.39 315.576 383.853C310.478 389.497 302.466 395.506 297.368 398.055C292.451 400.24 285.714 402.243 282.801 402.243C279.705 402.243 275.882 400.786 273.697 398.601C271.694 396.599 270.419 394.596 270.965 394.231C271.512 393.867 276.246 391.682 281.526 389.315C286.807 386.948 291.177 384.581 291.177 384.035C291.177 383.488 290.631 382.578 290.084 381.668C289.538 380.939 285.714 382.214 281.526 384.399C276.064 387.312 270.419 388.587 263.136 388.587C253.849 388.587 252.029 388.041 248.751 384.035C246.748 381.485 245.474 377.48 245.838 374.93C246.202 371.289 247.476 370.196 251.847 369.832C254.76 369.65 261.679 368.557 266.96 367.647C273.333 366.372 276.428 364.916 276.428 363.095C276.428 361.638 276.064 360.364 275.518 360.364C274.971 360.364 272.604 361.274 270.055 362.184C267.506 363.095 261.679 364.552 256.945 365.098C248.751 366.19 247.841 365.826 243.289 360.546C240.011 356.904 238.19 352.898 238.19 348.892C238.19 345.797 239.101 340.152 240.193 336.693C241.468 333.233 242.742 329.955 243.106 329.409C243.471 328.863 245.656 330.866 251.847 338.696L264.592 336.693C271.694 335.6 279.159 333.597 281.526 332.505C283.711 331.23 285.532 329.409 285.532 328.499C285.532 327.406 284.076 325.221 282.255 323.218C280.616 321.397 278.977 316.663 278.795 312.839C278.431 307.559 279.159 305.374 281.526 304.099C283.165 303.189 287.171 302.643 290.448 302.643C294.454 302.825 298.278 305.01 302.648 309.38C306.108 312.84 308.839 316.117 308.475 316.663C308.111 317.21 311.206 317.392 315.394 317.392C319.4 317.21 329.05 315.207 336.516 313.022C343.981 310.654 351.447 307.923 352.904 306.649C354.36 305.556 358.002 303.553 360.915 302.096C363.829 300.64 369.655 296.27 373.661 292.446C377.849 288.804 380.58 285.709 379.852 285.709C378.942 285.709 379.306 283.524 380.398 280.611C381.855 276.787 381.673 274.055 379.488 268.775C377.667 264.769 373.115 259.489 368.017 255.665C363.1 252.205 357.456 248.928 355.271 248.381C352.904 247.835 349.808 248.746 348.169 250.202C346.713 251.659 344.163 252.934 342.707 252.934C341.25 252.934 336.698 255.301 332.51 258.214C328.14 261.127 322.313 265.862 314.484 273.873L306.836 270.414C302.648 268.411 293.544 266.408 286.443 265.862C275.335 265.133 272.604 265.68 265.503 269.685C260.951 272.235 255.124 277.515 252.575 281.339C249.844 285.345 246.93 291.718 245.656 295.724C244.563 299.729 243.653 306.102 243.653 309.744C243.653 313.568 241.104 322.854 238.19 330.32C235.277 337.785 232.728 345.797 232.728 347.982C232.728 350.349 234.731 355.447 237.28 359.453C239.647 363.459 241.832 368.193 241.832 369.832C241.832 372.017 240.375 373.11 237.826 373.292C235.459 373.474 229.632 373.474 224.534 373.292C219.618 372.927 211.424 371.471 206.325 369.65C201.409 367.829 193.944 364.37 189.938 361.82C185.932 359.453 179.559 354.537 168.452 344.886L182.654 339.06L175.917 337.057C170.455 335.236 168.634 333.779 167.723 329.227C166.813 326.132 165.72 323.218 164.992 322.854C164.082 322.49 163.171 324.675 162.625 327.588C162.079 330.502 160.986 333.415 159.894 333.961C158.801 334.508 152.61 328.863 145.873 321.58C138.954 314.296 128.029 300.094 121.292 290.079C114.737 280.246 105.815 265.497 101.809 257.486C97.8028 249.474 92.3402 236.728 89.791 229.263C87.2419 221.797 83.6002 207.23 81.5972 196.852C79.4122 185.926 77.9555 170.631 77.9555 159.524C77.9555 149.327 79.2301 133.486 80.6868 124.564C82.3256 115.46 86.1494 100.711 89.0627 91.7886C92.1581 82.6843 97.6207 70.1205 101.262 63.5654C104.904 57.0104 111.641 47.1778 116.193 41.7153C120.745 36.2527 129.85 27.8768 136.405 23.3247C142.778 18.7726 151.336 13.4921 155.342 11.6713Z" fill="#FFB966"/>
<path d="M66.4842 35.8886C70.1259 30.0619 74.3138 24.5993 75.9526 23.5068C77.5914 22.5964 80.3226 21.6859 82.1435 21.6859C83.7822 21.6859 86.5135 23.5068 87.9702 25.6918C89.4269 28.0589 90.7015 32.7931 90.7015 36.2527C90.7015 39.7123 88.5165 48.2703 85.9673 55.3716C83.236 62.4729 79.2301 74.3084 77.0451 81.7739C74.8601 89.2394 72.3109 95.2482 71.4005 95.0661C70.4901 94.884 67.0304 93.6095 63.7529 92.3349C59.0187 90.3319 55.9233 90.3319 46.4549 92.3349C40.264 93.6095 33.891 95.9765 32.4343 97.4332C30.7956 99.072 29.7031 103.442 29.7031 107.812C29.7031 112.728 31.1597 117.463 33.891 121.286C36.076 124.564 37.5327 128.57 36.9865 130.026C36.4402 131.483 34.2552 133.486 32.0702 134.396C29.2782 135.489 26.2435 135.185 22.9659 133.486C20.0526 132.029 14.7721 126.203 11.1304 120.376C7.30664 114.731 3.84703 106.902 3.30077 103.078C2.75452 99.2541 3.11869 94.884 4.21119 93.4273C5.3037 91.9706 9.30957 90.1498 13.3154 89.6036C18.5959 88.6932 22.0555 89.2394 25.6972 91.4244C28.4285 93.0632 31.1597 93.9736 32.0702 93.4273C32.7985 92.8811 31.1597 90.3319 28.4285 87.9648C25.5151 85.5977 22.0555 83.5948 20.5988 83.5948C18.9601 83.5948 17.1392 80.8635 16.0467 76.6756C15.1363 73.0339 13.1333 63.7475 11.4946 56.282C9.85582 48.6345 9.12748 39.8944 9.67374 36.2527C10.4021 32.7931 12.2229 28.4231 13.8617 26.6022C15.6825 24.7814 18.778 23.3247 21.1451 23.5068C23.3301 23.5068 26.7897 25.6918 28.9747 28.4231C30.9777 31.3364 33.5268 36.799 34.6194 40.8048C35.7119 44.8107 38.4431 55.7358 40.4461 65.2042C42.6311 74.6726 45.3624 82.6844 46.637 83.0485C47.7295 83.4127 49.3682 81.4098 49.9145 78.4964C50.4607 75.7651 53.0099 67.3892 55.5591 59.9237C58.1083 52.4583 63.0246 41.5332 66.4842 35.8886Z" fill="#FFB966"/>
<path d="M36.4402 100.711C37.7148 99.4361 40.4461 98.1616 42.449 97.6153C44.4519 97.2511 50.2786 96.7049 55.1949 96.5228C62.4783 96.3407 65.5738 97.2511 71.2184 101.257C77.9555 106.173 78.1376 106.537 77.0451 115.46C76.3168 120.376 75.0422 131.119 74.1318 139.131C72.8572 149.509 71.4005 154.244 69.2155 155.7C66.3021 157.703 66.3021 158.067 69.3975 162.62C71.0363 165.351 73.2213 173.909 74.3138 182.285C75.2243 190.661 77.7735 203.953 79.9585 211.965C81.9614 219.976 84.1464 227.078 84.5106 227.806C84.8748 228.716 83.7822 228.898 82.1435 228.534C80.3226 228.17 74.4959 223.436 69.2155 218.155C63.7529 212.693 56.6516 204.135 53.3741 199.219C50.0966 194.12 44.9982 184.834 41.9027 178.279C38.9894 171.724 35.7119 164.258 34.4373 161.345C33.1627 158.25 29.521 155.154 24.2405 152.787C19.6884 150.784 14.7721 147.324 13.3154 144.957C11.8588 142.772 10.0379 138.22 9.30957 134.943C8.39914 131.301 8.58123 129.116 9.67374 129.116C10.7662 129.116 13.4975 131.301 16.0467 133.668C18.5959 136.217 23.5122 138.766 26.9718 139.495C32.2523 140.405 34.0731 139.859 38.4431 135.853C42.6311 131.483 44.634 130.937 53.3741 131.301C60.4754 131.665 63.3887 131.119 63.3887 129.48C63.3887 128.023 60.4754 127.295 54.8308 127.295C49.9145 127.295 44.8161 126.385 43.1773 125.11C41.5386 123.836 38.8073 120.74 37.1685 118.191C35.5298 115.642 34.2552 111.09 34.0731 108.176C34.0731 105.263 35.1656 101.803 36.4402 100.711Z" fill="#FFB966"/>
<path d="M217.25 392.593C215.794 385.491 214.337 378.936 214.337 378.208C214.155 377.662 215.612 377.298 217.432 377.662C219.435 378.026 225.626 378.39 231.453 378.39C238.554 378.572 241.832 379.3 241.832 380.757C241.832 382.032 243.653 384.945 245.838 387.312C248.205 389.497 252.939 392.046 256.399 392.775C261.497 393.867 262.954 395.142 264.046 399.876C265.503 405.521 265.139 406.067 258.766 408.798C254.214 410.801 249.661 411.347 245.474 410.619C242.014 409.891 236.551 408.98 233.638 408.434C230.725 408.07 226.355 407.159 224.17 406.795C220.71 406.067 219.618 403.882 217.25 392.593Z" fill="#FFB966"/>
<path d="M286.443 406.431C289.356 406.067 295.547 403.882 300.099 401.515C304.651 399.148 309.021 397.145 310.114 397.145C311.206 396.963 314.666 397.691 317.761 398.966C321.949 400.422 323.588 402.061 323.224 404.428C323.042 406.431 319.582 409.344 314.666 411.529C310.114 413.714 305.197 415.717 303.741 415.899C302.284 416.264 294.454 415.171 286.443 413.532C275.518 411.165 271.876 409.709 271.512 407.159C270.965 404.61 271.694 404.246 276.064 405.521C278.795 406.431 283.529 406.795 286.443 406.431Z" fill="#FFB966"/>
<path d="M325.591 270.232C331.6 264.224 338.519 259.125 342.889 257.487C346.895 256.212 351.629 254.937 353.268 254.937C355.089 254.755 358.731 255.848 361.462 257.304C364.375 258.579 368.927 262.585 371.841 265.862C376.029 270.961 376.757 273.146 375.847 278.426C375.3 281.886 372.569 287.166 369.656 289.898C366.924 292.811 362.19 296.271 359.277 297.909C356.363 299.366 348.534 303.008 341.979 305.739C335.424 308.47 326.502 311.384 321.949 311.93C314.12 313.204 313.391 312.84 305.926 305.921C301.556 301.551 295.729 297.909 292.27 297.363C288.628 296.635 284.258 297.363 280.434 299.184C276.246 301.369 274.243 303.736 273.515 307.924C272.787 312.112 273.515 316.118 279.706 328.5L266.778 331.049C254.578 333.234 253.486 333.234 251.301 330.138C250.026 328.135 248.933 323.765 248.933 320.306C248.751 316.846 248.751 310.473 248.933 306.285C248.933 301.915 251.118 294.632 253.486 289.898C255.671 284.981 260.041 279.337 262.954 276.97C265.867 274.785 271.148 271.871 274.607 270.779C278.067 269.686 284.44 269.322 288.628 270.05C292.998 270.597 300.828 273.328 315.576 280.429L325.591 270.232Z" fill="#D871A8"/>
<path d="M381.491 341.61C381.309 340.881 383.13 339.243 385.679 337.786C388.228 336.329 390.413 335.237 390.595 335.055C390.777 334.873 390.595 336.693 390.413 338.878C390.049 341.245 388.592 345.069 387.318 347.618C385.861 350.168 384.04 352.535 383.312 353.081C382.402 353.627 381.855 354.72 381.855 355.812C382.037 356.723 381.309 357.633 380.399 357.633C379.488 357.633 378.032 358.361 377.121 359.272C376.393 360.182 376.575 360.364 377.849 359.818C379.124 359.09 380.217 359.09 380.217 359.818C380.034 360.729 376.575 365.281 372.387 370.379C368.199 375.295 363.101 380.94 361.098 382.579C359.095 384.4 354.543 387.859 351.083 390.408C347.623 392.958 341.797 395.507 338.337 396.053C334.877 396.781 330.325 396.599 328.322 395.871C326.319 395.143 323.406 394.414 321.585 394.232C319.947 394.232 318.126 393.686 317.579 393.14C317.033 392.593 320.675 386.767 325.591 380.03C330.69 373.11 334.695 366.737 334.695 365.827C334.695 364.917 344.346 359.454 355.999 353.627C367.835 347.983 378.396 343.248 379.67 343.248C380.763 343.066 381.673 342.52 381.491 341.61Z" fill="#D871A8"/>
<path fill-rule="evenodd" clip-rule="evenodd" d="M170.819 47.7247C183.564 48.0889 187.934 49.1814 195.4 53.1872C200.498 55.9185 206.871 60.4706 209.967 63.2019C213.062 65.9332 217.796 71.5778 220.892 75.4016C223.805 79.4074 226.172 82.8671 226.354 83.2312C226.354 83.5954 230.906 82.5029 236.369 80.8641C241.832 79.4074 250.936 78.1328 256.398 78.1328C261.861 78.1328 270.601 79.2254 275.517 80.682C280.616 82.3208 288.445 86.1446 293.179 89.4221C297.914 92.6996 305.561 100.347 310.113 106.356C314.665 112.547 319.764 121.651 321.403 127.296C323.041 132.758 324.134 142.409 324.134 148.6C323.952 155.519 322.131 164.259 319.582 170.45C317.033 177.187 313.937 181.739 311.024 183.196C307.564 185.017 305.197 189.205 301.373 200.494C298.642 208.87 294.272 219.249 291.723 223.801C289.174 228.353 284.622 235.272 281.526 239.278C278.431 243.284 273.332 248.564 270.237 251.113C267.141 253.663 259.676 257.668 253.667 260.036C244.381 263.677 240.557 264.224 228.175 263.495C218.161 262.949 211.241 261.492 206.325 258.943C202.319 256.758 195.4 251.842 191.03 248.018C186.66 244.194 181.015 236.911 178.466 231.994C176.099 226.896 173.914 222.708 173.732 222.344C173.732 222.162 168.633 223.254 162.625 224.893C155.341 226.896 147.694 227.624 139.864 227.078C132.399 226.532 124.751 224.529 119.106 221.798C114.19 219.431 106.907 214.15 102.901 210.144C98.7129 206.138 93.6146 198.673 91.2475 193.757C88.152 186.837 87.0595 181.375 87.0595 171.36C87.0595 164.259 88.6983 151.695 90.7012 143.683C92.7041 135.672 96.3458 124.747 98.5309 119.466C101.808 112.365 102.355 109.087 101.08 106.356C99.8054 103.807 100.352 99.8009 102.537 92.6996C104.175 87.2371 107.817 79.4074 110.366 75.5837C113.098 71.7599 118.56 65.7511 122.566 62.4736C126.572 59.196 135.676 54.2797 142.595 51.7306C153.338 47.7247 157.708 47.1784 170.819 47.7247ZM151.7 252.934C152.792 252.934 155.159 254.573 157.162 256.576C159.165 258.397 164.992 260.764 169.908 261.674C178.648 263.313 178.648 263.495 172.275 263.677C168.451 263.677 163.171 262.767 160.44 261.31C157.526 260.036 154.067 257.486 152.61 255.848C151.153 254.209 150.789 252.934 151.7 252.934Z" fill="#2C2C2C"/>
<path d="M113.462 105.809C117.103 104.898 121.837 103.806 124.023 103.26C126.208 102.713 132.763 102.167 138.407 101.985C144.234 101.985 152.974 102.531 158.072 103.624C162.989 104.716 167.541 106.173 168.087 107.266C168.633 108.176 166.448 113.092 163.535 118.191C160.439 123.107 158.072 127.841 158.072 128.569C158.254 129.48 164.081 135.489 184.475 154.061L165.538 160.252C152.61 164.44 146.055 167.536 144.78 170.085C143.87 172.088 143.323 179.553 143.87 187.383C144.598 196.305 146.237 203.588 148.786 208.323C150.789 212.328 154.066 217.427 158.983 223.982L143.506 223.254C132.034 222.889 126.025 221.615 120.199 218.701C116.011 216.516 109.092 211.236 104.722 206.866C100.351 202.314 95.7994 195.395 93.7964 190.114C92.1577 185.016 90.701 176.094 90.701 170.085C90.701 164.076 91.9756 154.061 93.4323 147.688C94.8889 141.498 98.5306 129.844 101.626 121.832C106.724 108.176 107.453 107.083 113.462 105.809Z" fill="#EFEDDB"/>
<path d="M192.122 155.518C199.77 140.769 202.683 137.127 206.689 136.035C209.602 135.307 219.617 135.125 229.085 135.489C238.554 135.853 250.753 137.492 255.852 138.948C261.132 140.587 265.502 142.226 265.502 142.772C265.502 143.318 262.225 148.053 258.219 153.151C254.213 158.431 250.936 163.53 250.936 164.622C250.936 165.715 255.852 172.088 261.861 179.189C267.869 186.29 272.786 192.299 272.786 192.845C272.786 193.392 264.046 195.577 253.303 197.762C242.378 200.129 233.455 202.132 233.091 202.314C232.909 202.678 231.999 206.138 230.906 210.143C229.996 214.149 229.085 222.343 229.085 228.352C229.085 236.91 230.178 241.644 240.01 261.127L227.629 260.035C220.71 259.488 212.152 257.303 207.599 254.936C203.411 252.933 197.038 248.381 193.397 245.104C189.755 242.008 184.657 235.635 182.108 231.083C179.012 225.803 177.191 219.066 176.645 211.964C176.099 204.863 177.009 196.305 179.012 187.383C181.015 179.735 186.66 165.715 192.122 155.518Z" fill="#EFEDDB"/>
<path d="M134.401 58.8307C137.861 57.192 144.052 54.6428 148.057 53.1861C152.427 51.7294 161.35 51.0011 170.818 51.3653C182.107 51.9115 188.298 53.004 193.579 55.7353C197.585 57.7382 204.14 62.6545 208.328 66.4783C212.333 70.4842 217.068 75.7646 218.706 78.4959C220.891 82.1376 221.256 84.3226 219.981 86.3255C218.524 88.6926 216.521 87.7822 207.781 81.0451C201.955 76.493 193.579 71.2125 189.027 69.2096C184.474 67.2066 179.012 65.3858 176.645 65.3858C174.46 65.3858 172.639 65.932 172.639 66.6604C172.639 67.5708 177.009 69.5737 182.107 71.5767C187.388 73.3975 196.128 78.1317 201.226 81.9555C206.507 85.7793 210.877 89.6031 210.877 90.3314C210.877 91.2418 206.325 96.5223 200.862 102.167C195.399 107.994 190.483 112.728 189.937 112.728C189.391 112.728 185.931 110.725 182.289 108.358C178.466 105.809 170.454 102.531 164.445 100.71C158.072 99.0715 147.511 97.7969 138.953 97.7969C130.941 97.7969 121.109 98.7073 117.103 99.6177C113.097 100.528 108.181 102.167 106.36 102.895C103.083 104.352 102.9 103.988 104.357 98.1611C105.085 94.7014 106.906 89.421 108.545 86.6897C110.002 83.7764 114.008 80.3167 117.285 78.8601C120.745 77.4034 126.571 76.3109 130.213 76.3109C134.037 76.3109 142.959 77.9496 149.878 79.7705C156.798 81.7734 162.988 82.8659 163.535 82.3197C164.081 81.9555 162.806 80.3167 160.803 78.8601C158.8 77.4034 151.335 75.0363 144.416 73.3975C137.497 71.9408 128.939 71.0304 125.843 71.5767C122.566 72.1229 119.834 72.1229 119.834 71.2125C119.834 70.4842 121.655 68.1171 123.84 66.1141C126.207 63.9291 130.941 60.6516 134.401 58.8307Z" fill="#FFB966"/>
<path d="M225.079 89.421C229.267 87.236 235.822 84.6868 239.646 83.5943C243.288 82.6838 252.574 82.1376 260.04 82.5018C269.69 82.8659 276.245 84.3226 282.8 87.418C287.899 89.7852 295.546 95.4298 300.098 99.9819C304.65 104.716 310.477 112.546 313.208 117.462C315.94 122.378 318.671 130.39 320.674 144.593L313.39 135.488C309.385 130.39 303.012 124.017 299.006 120.922C295.182 118.008 288.081 114.185 283.346 112.364C278.43 110.543 272.968 109.086 270.965 109.086C268.962 109.086 267.323 109.632 267.323 110.361C267.323 111.271 271.511 113.274 276.791 114.913C282.072 116.552 290.63 120.922 295.546 124.745C300.644 128.387 307.564 135.124 311.023 139.676C315.575 145.685 317.578 150.237 318.125 156.246C318.489 161.344 317.578 167.353 315.758 171.359C314.119 175.183 312.298 178.278 311.57 178.278C310.659 178.278 308.656 176.093 307.017 173.362C305.379 170.449 300.827 164.986 297.003 161.162C293.179 157.157 286.078 150.784 280.979 146.96C276.063 143.318 266.23 138.038 259.129 135.488C247.84 131.483 243.834 130.936 222.712 131.118C209.602 131.3 197.585 130.754 195.946 130.208C193.943 129.48 192.668 127.295 192.668 124.563C192.668 121.832 194.125 119.283 196.31 118.19C198.313 117.098 205.778 116.37 212.698 116.37C219.981 116.37 225.443 115.641 225.443 114.549C225.443 113.456 222.712 112.182 219.617 111.635C216.339 111.089 210.513 110.907 206.871 111.089C203.047 111.453 199.952 111.453 199.952 110.907C199.77 110.361 203.775 106.173 208.51 101.621C213.244 97.0685 220.709 91.606 225.079 89.421Z" fill="#FFB966"/>
</svg>
