<svg width="139" height="56" viewBox="0 0 139 56" fill="none" xmlns="http://www.w3.org/2000/svg">
<g filter="url(#filter0_d_2008_2)">
<rect x="4" width="131" height="48" rx="20" fill="#F45B49"/>
<path d="M50.44 35L45.768 26.52H44.456V35H38.984V12.536H48.168C49.9387 12.536 51.4427 12.8453 52.68 13.464C53.9387 14.0827 54.8773 14.936 55.496 16.024C56.1147 17.0907 56.424 18.2853 56.424 19.608C56.424 21.1013 55.9973 22.4347 55.144 23.608C54.312 24.7813 53.0747 25.6133 51.432 26.104L56.616 35H50.44ZM44.456 22.648H47.848C48.8507 22.648 49.5973 22.4027 50.088 21.912C50.6 21.4213 50.856 20.728 50.856 19.832C50.856 18.9787 50.6 18.3067 50.088 17.816C49.5973 17.3253 48.8507 17.08 47.848 17.08H44.456V22.648ZM85.491 17.144L80.659 35H74.611L71.795 23.416L68.883 35H62.867L58.003 17.144H63.475L66.003 29.912L69.011 17.144H74.803L77.843 29.848L80.339 17.144H85.491ZM99.0338 35L94.3618 26.52H93.0498V35H87.5778V12.536H96.7618C98.5324 12.536 100.036 12.8453 101.274 13.464C102.532 14.0827 103.471 14.936 104.09 16.024C104.708 17.0907 105.018 18.2853 105.018 19.608C105.018 21.1013 104.591 22.4347 103.738 23.608C102.906 24.7813 101.668 25.6133 100.026 26.104L105.21 35H99.0338ZM93.0498 22.648H96.4418C97.4444 22.648 98.1911 22.4027 98.6818 21.912C99.1938 21.4213 99.4498 20.728 99.4498 19.832C99.4498 18.9787 99.1938 18.3067 98.6818 17.816C98.1911 17.3253 97.4444 17.08 96.4418 17.08H93.0498V22.648Z" fill="#0A0A0A"/>
</g>
<defs>
<filter id="filter0_d_2008_2" x="0" y="0" width="139" height="56" filterUnits="userSpaceOnUse" color-interpolation-filters="sRGB">
<feFlood flood-opacity="0" result="BackgroundImageFix"/>
<feColorMatrix in="SourceAlpha" type="matrix" values="0 0 0 0 0 0 0 0 0 0 0 0 0 0 0 0 0 0 127 0" result="hardAlpha"/>
<feOffset dy="4"/>
<feGaussianBlur stdDeviation="2"/>
<feComposite in2="hardAlpha" operator="out"/>
<feColorMatrix type="matrix" values="0 0 0 0 0 0 0 0 0 0 0 0 0 0 0 0 0 0 0.25 0"/>
<feBlend mode="normal" in2="BackgroundImageFix" result="effect1_dropShadow_2008_2"/>
<feBlend mode="normal" in="SourceGraphic" in2="effect1_dropShadow_2008_2" result="shape"/>
</filter>
</defs>
</svg>
