<svg width="180" height="180" viewBox="0 0 180 180" fill="none" xmlns="http://www.w3.org/2000/svg">
<g id="Wireframe 58">
<g id="Group">
<g id="Group_2">
<g id="Clip path group">
<mask id="mask0_2_1593" style="mask-type:luminance" maskUnits="userSpaceOnUse" x="15" y="15" width="150" height="149">
<g id="SVGID_2_">
<path id="Vector" d="M38.9042 143.901C47.6991 152.126 59.3138 157.581 72.8408 158.991C59.2768 157.572 47.6991 152.126 38.9042 143.901C37.2175 142.282 34.9622 140.095 33.514 138.297C32.2717 136.784 30.6088 134.74 29.4302 133.125C28.4856 131.84 27.2315 130.05 26.4335 128.644C25.4578 126.999 24.1906 124.776 23.3068 123.075C22.5266 121.595 21.6118 119.534 20.9976 118.015C19.9777 115.577 18.5007 111.618 17.3187 106.595C15.1368 97.257 15.1558 89.1927 15.5619 84.0808C15.843 80.4665 16.5941 75.7117 17.4396 72.1938C18.6515 67.3147 19.2742 65.7017 21.4046 60.2601C22.1177 58.4338 23.2976 56.1322 24.2151 54.4335C25.0511 52.9109 26.2427 50.8863 27.1809 49.4276C30.105 44.9208 32.7013 41.9413 34.5847 39.8088C35.8828 38.319 37.7692 36.5005 39.1887 35.1574C40.4067 34.0009 42.1492 32.618 43.4324 31.5163C45.009 30.1717 47.2952 28.6452 49.0213 27.4933C50.3711 26.6035 52.2083 25.4783 53.6513 24.6892C55.6737 23.6085 58.3775 22.2999 60.4843 21.357C63.6489 19.9241 66.7259 19.0186 69.9777 18.0375C72.4281 17.2947 75.7657 16.6085 78.3211 16.2434C79.9818 16.0158 82.1683 15.7188 83.8393 15.6112C85.5191 15.4666 87.8093 15.3903 89.4906 15.4027C91.0978 15.3973 93.2042 15.4336 94.7759 15.5763C96.9297 15.7414 97.66 15.7994 101.036 16.2583C101.11 16.2761 103.154 16.5715 106.014 17.2198C108.06 17.6723 109.856 18.1824 110.699 18.4242C111.727 18.7104 114.09 19.474 115.628 20.0789C118.14 21.0352 118.706 21.2887 121.322 22.4657C123.298 23.3715 127.085 25.3784 129.38 26.9094C131.137 28.0758 134.12 30.0069 137.145 32.575C140.431 35.3625 143.134 37.9705 145.122 40.2894C147.139 42.6543 149.436 45.3214 152.116 49.4907C155.049 54.0734 156.895 57.964 157.725 59.887C158.584 61.856 160.169 65.5272 161.642 71.1301C162.523 74.4752 163.192 79.0231 163.658 82.4643C163.906 84.365 163.994 86.9321 164.002 88.8534C164.009 90.6177 163.874 92.9744 163.834 94.7668C163.76 96.7073 163.405 99.3247 163.099 101.249C162.768 103.441 162.222 106.365 161.595 108.486C161.056 110.237 160.422 112.552 159.809 114.285C159.17 116.129 158.26 118.613 157.37 120.357C156.6 121.935 155.612 124.087 154.739 125.601C153.785 127.29 152.42 129.547 151.326 131.165C147.671 136.593 143.974 140.404 143.562 140.814C141.219 143.228 137.847 146.178 135.253 148.335C133.648 149.634 131.325 151.152 129.636 152.312C128.314 153.248 126.42 154.282 124.986 155.034C122.927 156.105 120.177 157.442 118.088 158.311C116.432 159.01 114.195 159.843 112.5 160.376C110.05 161.118 106.741 162.008 104.224 162.539C102.03 163.03 97.1508 163.776 92.5705 163.929C90.4373 164.003 84.8408 164.147 78.31 163.126C75.0261 162.61 69.9366 161.622 63.7173 159.305C61.6688 158.538 59.9996 157.824 60.0085 157.787C58.3112 157.026 58.3112 157.026 55.583 155.666C53.4858 154.613 51.0332 153.084 49.9743 152.437C48.5718 151.591 46.7872 150.379 45.5032 149.365C43.3825 147.759 40.8131 145.574 38.9042 143.901Z" fill="white"/>
</g>
</mask>
<g mask="url(#mask0_2_1593)">
<g id="Group_3">
<g id="Group_4">
<g id="Group_5">
<g id="Group_6">
<path id="Vector_2" d="M80.2798 163.403C77.6506 162.771 75.0973 161.335 72.759 159.167C55.5984 157.393 40.8901 149.001 31.3637 135.509C26.3385 128.386 23.0037 120.26 21.426 111.342C19.8085 102.101 20.2012 92.4814 22.542 82.7424L22.6221 82.4092L22.8457 82.6196C37.9668 96.7905 80.2583 111.342 117.141 115.154L117.372 115.17L117.318 115.392C111.06 141.267 99.6893 159.568 87.6583 163.179C85.0969 163.895 82.6497 163.973 80.2798 163.403ZM72.8939 158.769L72.922 158.815C77.4032 162.986 82.2926 164.318 87.4422 162.774C99.2983 159.239 110.551 141.106 116.792 115.462C80.1042 111.657 38.0719 97.1682 22.7389 83.064C20.4708 92.6637 20.1226 102.098 21.6927 111.21C23.2423 120.082 26.5859 128.172 31.592 135.211C41.0621 148.611 55.6963 156.985 72.7828 158.742L72.8939 158.769Z" fill="#2C2C2C"/>
</g>
</g>
<g id="Group_7">
<g id="Group_8">
<path id="Vector_3" d="M72.9432 159.876C59.3531 156.61 46.7147 151.34 41.2178 146.18L41.483 145.891C49.0947 153.008 70.4352 160.37 89.0103 162.289L88.9584 162.668C83.725 162.115 78.2385 161.149 72.9432 159.876Z" fill="#2C2C2C"/>
</g>
</g>
<g id="Group_9">
<g id="Group_10">
<path id="Vector_4" d="M77.4179 142.23C54.163 136.641 32.6319 127.627 23.1943 118.818L23.4596 118.529C36.5031 130.751 73.0032 143.323 104.846 146.59L104.794 146.969C95.8813 146.08 86.5273 144.419 77.4179 142.23Z" fill="#2C2C2C"/>
</g>
</g>
<g id="Group_11">
<g id="Group_12">
<path id="Vector_5" d="M62.9566 158.887C58.7721 157.881 55.0666 155.698 51.988 152.373C42.0711 141.646 39.6367 120.811 45.4855 96.6387L45.8558 96.7277C40.0426 120.751 42.4296 141.458 52.2444 152.121C57.4968 157.809 64.5841 160.1 72.7659 158.816L72.8339 159.185C69.3378 159.715 66.0301 159.625 62.9566 158.887Z" fill="#2C2C2C"/>
</g>
</g>
<g id="Group_13">
<g id="Group_14">
<path id="Vector_6" d="M70.6393 161.635C70.6023 161.626 70.6023 161.626 70.5653 161.617C67.7659 160.552 73.5583 132.215 79.3448 108.302L79.7151 108.391C71.5063 142.219 68.9673 160.606 70.6913 161.255C70.8394 161.291 71.3475 161.296 72.6371 158.864L72.9807 159.064C71.9727 160.976 71.2318 161.777 70.6393 161.635Z" fill="#2C2C2C"/>
</g>
</g>
</g>
<g id="Group_15">
<g id="Group_16">
<g id="Group_17">
<path id="Vector_7" d="M80.2819 163.403C77.6158 162.762 75.0624 161.326 72.696 159.112L72.2769 158.737L72.8502 158.797C80.9127 159.638 88.998 158.918 96.8408 156.925C105.063 148.952 112.346 134.134 116.913 115.294L116.949 115.146L117.106 115.145C130.485 116.519 141.66 116.307 149.496 114.665C152.474 108.957 154.848 102.83 156.379 96.4604L156.459 96.1271L156.682 96.3375C161.452 100.774 163.125 104.897 161.622 108.218C160.209 111.325 156.055 113.617 149.739 114.958C138.716 135.889 118.907 151.653 96.9918 157.274C93.9423 160.184 90.7923 162.208 87.5864 163.161C85.099 163.895 82.6519 163.973 80.2819 163.403ZM73.3803 159.198C77.7386 163.066 82.4607 164.279 87.4814 162.783C90.4754 161.897 93.4239 160.06 96.2822 157.456C88.789 159.298 81.0726 159.95 73.3803 159.198ZM117.211 115.523C112.733 133.992 105.614 148.614 97.5223 156.697C118.984 151.005 138.371 135.532 149.25 115.037C141.423 116.641 130.396 116.89 117.211 115.523ZM156.678 96.8456C155.146 103.058 152.862 108.972 149.994 114.55C155.996 113.211 159.966 111.032 161.306 108.064C162.719 104.956 161.104 101.082 156.678 96.8456Z" fill="#2C2C2C"/>
</g>
</g>
<g id="Group_18">
<g id="Group_19">
<path id="Vector_8" d="M88.9581 162.668L89.01 162.288C101.168 163.526 109.673 162.202 111.24 158.779C111.965 157.23 111.106 155.261 108.805 153.102L109.07 152.813C111.502 155.082 112.362 157.208 111.601 158.905C109.916 162.495 101.264 163.941 88.9581 162.668Z" fill="#2C2C2C"/>
</g>
</g>
<g id="Group_20">
<g id="Group_21">
<path id="Vector_9" d="M104.823 147.013L104.875 146.634C125.706 148.781 140.335 146.422 143.006 140.523C144.247 137.805 142.793 134.4 138.797 130.659L139.062 130.37C143.189 134.221 144.644 137.783 143.331 140.64C140.615 146.724 125.848 149.168 104.823 147.013Z" fill="#2C2C2C"/>
</g>
</g>
<g id="Group_22">
<g id="Group_23">
<path id="Vector_10" d="M82.1747 162.369C78.9901 161.604 75.8397 160.533 72.7605 159.167L72.9235 158.814C86.9008 165.033 101.809 164.934 114.996 158.468C130.501 150.835 142.154 135.109 146.961 115.27L147.331 115.359C142.497 135.309 130.781 151.138 115.147 158.818C104.81 163.854 93.3578 165.057 82.1747 162.369Z" fill="#2C2C2C"/>
</g>
</g>
<g id="Group_24">
<g id="Group_25">
<path id="Vector_11" d="M74.4632 159.576C73.9078 159.443 73.3153 159.3 72.7687 159.13L72.8577 158.759C92.451 163.939 112.573 161.215 129.487 151.14C145.491 141.591 156.733 126.432 161.096 108.444L161.466 108.533C157.086 126.595 145.817 141.865 129.684 151.462C113.174 161.321 93.6448 164.186 74.4632 159.576Z" fill="#2C2C2C"/>
</g>
</g>
</g>
<g id="Group_26">
<g id="Group_27">
<g id="Group_28">
<path id="Vector_12" d="M72.7231 159.157L72.6949 159.111C57.5086 144.886 52.695 102.17 61.9806 63.8617L62.0162 63.7136L62.1733 63.7121C99.1014 67.4957 141.532 82.1199 156.681 96.3367L156.784 96.4004L156.757 96.5115C147.471 134.82 109.808 162.939 72.806 159.138L72.7231 159.157ZM62.3064 64.1358C53.1112 102.231 57.839 144.652 72.8861 158.805C109.666 162.553 147.045 134.639 156.351 96.5706C141.184 82.4279 99.0776 67.9208 62.3064 64.1358Z" fill="#2C2C2C"/>
</g>
</g>
<g id="Group_29">
<g id="Group_30">
<path id="Vector_13" d="M108.768 153.093C101.156 145.975 79.8155 138.614 61.2403 136.695L61.2923 136.316C79.9504 138.215 101.393 145.641 109.033 152.804L108.768 153.093Z" fill="#2C2C2C"/>
</g>
</g>
<g id="Group_31">
<g id="Group_32">
<path id="Vector_14" d="M138.825 130.705C125.781 118.483 89.2809 105.911 57.438 102.644L57.49 102.265C89.407 105.549 126.009 118.185 139.118 130.462L138.825 130.705Z" fill="#2C2C2C"/>
</g>
</g>
<g id="Group_33">
<g id="Group_34">
<path id="Vector_15" d="M72.8429 159.147L72.7749 158.778C96.9321 154.909 124.111 120.705 133.361 82.5451L133.731 82.6341C124.491 120.914 97.1571 155.277 72.8429 159.147Z" fill="#2C2C2C"/>
</g>
</g>
<g id="Group_35">
<g id="Group_36">
<path id="Vector_16" d="M72.9809 159.063L72.6373 158.862C78.169 148.559 90.2518 109.042 99.5107 70.8451L99.881 70.9341C90.6132 109.168 78.5585 148.731 72.9809 159.063Z" fill="#2C2C2C"/>
</g>
</g>
</g>
<g id="Group_37">
<g id="Group_38">
<g id="Group_39">
<path id="Vector_17" d="M64.4911 157.728C50.864 154.453 39.3211 146.743 31.339 135.463C26.3137 128.341 22.9789 120.215 21.4013 111.296C19.7748 102.092 20.1587 92.5099 22.4905 82.808C17.7947 78.3891 16.1132 74.3031 17.6075 71.0195C20.7768 64.0257 37.8589 61.2375 62.2125 63.7223L62.4436 63.7386L62.3902 63.9608C53.1402 102.121 57.9064 144.708 72.9994 158.833L73.4185 159.208L72.8453 159.148C69.979 158.851 67.1943 158.378 64.4911 157.728ZM61.9295 64.0851C37.881 61.6345 21.0478 64.365 17.96 71.1825C16.5383 74.3269 18.2095 78.293 22.812 82.6111L22.9142 82.6748L22.8875 82.7859C20.5557 92.4878 20.1718 102.07 21.7701 111.228C23.3197 120.101 26.6633 128.19 31.6694 135.229C41.0551 148.491 55.4672 156.812 72.3329 158.673C57.4489 144.167 52.8158 102.004 61.9295 64.0851Z" fill="#2C2C2C"/>
</g>
</g>
<g id="Group_40">
<g id="Group_41">
<path id="Vector_18" d="M41.2175 146.18C38.7859 143.912 37.926 141.786 38.6864 140.088C40.3259 136.526 48.9774 135.08 61.2838 136.354L61.2318 136.733C49.0735 135.495 40.5688 136.82 39.0019 140.242C38.277 141.792 39.1356 143.761 41.4368 145.92L41.2175 146.18Z" fill="#2C2C2C"/>
</g>
</g>
<g id="Group_42">
<g id="Group_43">
<path id="Vector_19" d="M23.2328 118.826C19.1056 114.975 17.6506 111.413 18.964 108.556C21.7079 102.518 36.4745 100.074 57.4997 102.229L57.4478 102.608C36.6166 100.46 21.9878 102.82 19.3165 108.719C18.0757 111.437 19.5293 114.841 23.5261 118.583L23.2328 118.826Z" fill="#2C2C2C"/>
</g>
</g>
<g id="Group_44">
<g id="Group_45">
<path id="Vector_20" d="M72.733 159.121C40.9662 144.945 22.6755 102.241 31.9611 63.9324L32.3314 64.0214C23.0814 102.182 41.2966 144.711 72.9242 158.814L72.733 159.121Z" fill="#2C2C2C"/>
</g>
</g>
<g id="Group_46">
<g id="Group_47">
<path id="Vector_21" d="M72.7616 159.167C33.1678 148.711 8.47527 109.012 17.7609 70.7036L18.1312 70.7926C8.89007 108.916 33.433 148.422 72.8506 158.797L72.7616 159.167Z" fill="#2C2C2C"/>
</g>
</g>
</g>
<g id="Group_48">
<g id="Group_49">
<g id="Group_50">
<path id="Vector_22" d="M85.317 110.012C58.3961 103.541 33.4436 93.1178 22.5429 82.899L22.4408 82.8353L22.4675 82.7242C31.799 44.3876 69.4531 16.3052 106.455 20.1065L106.529 20.1243L106.558 20.1703C121.744 34.3959 126.557 77.1115 117.272 115.42L117.236 115.568L117.079 115.569C106.658 114.436 95.8336 112.539 85.317 110.012ZM22.9015 82.711C38.0775 96.8167 80.1838 111.324 116.946 115.146C126.141 77.0506 121.413 34.6299 106.366 20.4768C69.5863 16.7289 32.1708 44.6336 22.9015 82.711Z" fill="#2C2C2C"/>
</g>
</g>
<g id="Group_51">
<g id="Group_52">
<path id="Vector_23" d="M94.3963 72.241C71.1413 66.6517 49.6103 57.6382 40.1727 48.8286L40.4379 48.5399C53.4814 60.7621 89.9816 73.3342 121.825 76.6006L121.773 76.9798C112.823 76.0821 103.469 74.4215 94.3963 72.241Z" fill="#2C2C2C"/>
</g>
</g>
<g id="Group_53">
<g id="Group_54">
<path id="Vector_24" d="M101.955 40.1375C88.3648 36.8712 75.7264 31.601 70.2294 26.4412L70.4947 26.1524C78.1063 33.2697 99.4468 40.6315 118.022 42.55L117.97 42.9292C112.737 42.3764 107.25 41.4102 101.955 40.1375Z" fill="#2C2C2C"/>
</g>
</g>
<g id="Group_55">
<g id="Group_56">
<path id="Vector_25" d="M45.855 96.7276L45.4847 96.6386C54.7703 58.3302 82.1046 23.968 106.382 20.089L106.45 20.4578C82.2926 24.3265 55.1139 58.5303 45.855 96.7276Z" fill="#2C2C2C"/>
</g>
</g>
<g id="Group_57">
<g id="Group_58">
<path id="Vector_26" d="M79.7155 108.391L79.3452 108.302C88.613 70.0675 100.668 30.5053 106.245 20.1734L106.589 20.3735C101.057 30.6773 88.9833 70.1565 79.7155 108.391Z" fill="#2C2C2C"/>
</g>
</g>
</g>
<g id="Group_59">
<g id="Group_60">
<g id="Group_61">
<path id="Vector_27" d="M116.82 115.509L116.873 115.286C126.123 77.1261 121.357 34.5394 106.264 20.4145L105.845 20.0396L106.418 20.099C123.624 21.8452 138.361 30.2832 147.887 43.7753C152.913 50.8976 156.247 59.0238 157.825 67.9419C159.451 77.1459 159.068 86.7284 156.736 96.4303C161.432 100.849 163.113 104.935 161.619 108.219C158.449 115.213 141.367 118.001 117.014 115.516L116.82 115.509ZM106.939 20.5377C121.768 35.1084 126.402 77.2713 117.288 115.19C141.336 117.641 158.17 114.91 161.257 108.093C162.679 104.948 161.008 100.982 156.405 96.6643L156.303 96.6006L156.33 96.4895C158.662 86.7876 159.046 77.205 157.447 68.0469C155.898 59.1748 152.554 51.0857 147.548 44.0462C138.217 30.7187 123.805 22.3978 106.939 20.5377Z" fill="#2C2C2C"/>
</g>
</g>
<g id="Group_62">
<g id="Group_63">
<path id="Vector_28" d="M121.8 77.0262L121.852 76.647C142.683 78.7944 157.312 76.435 159.983 70.5357C161.224 67.8179 159.77 64.4134 155.773 60.6717L156.039 60.3829C160.166 64.2342 161.621 67.7958 160.307 70.6529C157.554 76.7284 142.788 79.1721 121.8 77.0262Z" fill="#2C2C2C"/>
</g>
</g>
<g id="Group_64">
<g id="Group_65">
<path id="Vector_29" d="M117.979 42.8928L118.031 42.5136C130.189 43.7515 138.694 42.427 140.261 39.0042C140.986 37.455 140.127 35.486 137.826 33.327L138.091 33.0382C140.523 35.3069 141.383 37.4329 140.622 39.1302C138.937 42.7204 130.285 44.1663 117.979 42.8928Z" fill="#2C2C2C"/>
</g>
</g>
<g id="Group_66">
<g id="Group_67">
<path id="Vector_30" d="M147.303 115.314L146.932 115.225C156.182 77.0646 137.967 34.5357 106.34 20.4321L106.503 20.0796C138.298 34.3018 156.588 77.0055 147.303 115.314Z" fill="#2C2C2C"/>
</g>
</g>
<g id="Group_68">
<g id="Group_69">
<path id="Vector_31" d="M161.457 108.57L161.086 108.481C170.328 70.3581 145.785 30.852 106.367 20.4772L106.456 20.1069C146.096 30.5351 170.751 70.2249 161.457 108.57Z" fill="#2C2C2C"/>
</g>
</g>
</g>
<g id="Group_70">
<g id="Group_71">
<g id="Group_72">
<path id="Vector_32" d="M156.677 96.8449L156.453 96.6344C141.332 82.4636 99.0406 67.912 62.1583 64.1003L61.9273 64.0839L61.9807 63.8618C68.2388 37.9866 79.6096 19.6856 91.6406 16.0751C96.8731 14.5125 101.985 15.8978 106.503 20.0781C123.663 21.8524 138.372 30.2445 147.898 43.7365C152.923 50.8589 156.258 58.985 157.836 67.9031C159.453 77.1442 159.098 86.7726 156.72 96.5027L156.677 96.8449ZM93.9073 69.2243C120.606 75.6412 145.428 85.9549 156.458 96.1263C158.726 86.5266 159.074 77.0922 157.504 67.9801C155.954 59.1079 152.611 51.0188 147.605 43.9794C138.135 30.5792 123.5 22.2049 106.414 20.4484L106.34 20.4306L106.312 20.3846C101.831 16.2132 96.9782 14.8903 91.7915 16.4247C79.9354 19.9597 68.6832 38.0934 62.4414 63.7375C72.7229 64.7985 83.4648 66.7144 93.9073 69.2243Z" fill="#2C2C2C"/>
</g>
</g>
<g id="Group_73">
<g id="Group_74">
<path id="Vector_33" d="M155.775 60.6709C142.731 48.4486 106.231 35.8765 74.3882 32.6101L74.4402 32.2309C106.357 35.5151 142.959 48.1509 156.068 60.428L155.775 60.6709Z" fill="#2C2C2C"/>
</g>
</g>
<g id="Group_75">
<g id="Group_76">
<path id="Vector_34" d="M137.783 33.3535C130.181 26.1992 108.868 18.8834 90.256 16.956L90.3079 16.5768C108.966 18.476 130.409 25.9015 138.049 33.0648L137.783 33.3535Z" fill="#2C2C2C"/>
</g>
</g>
<g id="Group_77">
<g id="Group_78">
<path id="Vector_35" d="M133.741 82.5973L133.37 82.5083C139.184 58.4847 136.797 37.7779 126.982 27.1151C121.729 21.4266 114.642 19.1356 106.46 20.4202L106.392 20.0513C114.703 18.7194 121.892 21.0741 127.238 26.8634C137.183 37.6359 139.618 58.4715 133.741 82.5973Z" fill="#2C2C2C"/>
</g>
</g>
<g id="Group_79">
<g id="Group_80">
<path id="Vector_36" d="M99.8809 70.9341L99.5106 70.8451C107.719 37.0173 110.258 18.6305 108.534 17.9811C108.386 17.9455 107.878 17.9409 106.589 20.3728L106.245 20.1727C107.317 18.1585 108.086 17.4033 108.66 17.6197C111.46 18.6842 105.676 46.9845 99.8809 70.9341Z" fill="#2C2C2C"/>
</g>
</g>
</g>
<g id="Group_81">
<g id="Group_82">
<g id="Group_83">
<path id="Vector_37" d="M22.8065 83.1191L22.5829 82.9087C17.813 78.4721 16.1404 74.349 17.6436 71.0284C19.0563 67.921 23.2107 65.6293 29.526 64.2878C40.5124 43.3484 60.3214 27.5848 82.2365 21.9629C85.286 19.0531 88.436 17.0292 91.6419 16.0763C96.8744 14.5137 102.023 15.9078 106.532 20.1252L106.951 20.5001L106.378 20.4406C98.3155 19.5996 90.2302 20.3198 82.3875 22.3126C74.165 30.2853 66.8824 45.1036 62.3152 63.943L62.2796 64.0912L62.1226 64.0926C48.7437 62.718 37.5685 62.9306 29.7318 64.5723C26.754 70.2803 24.3804 76.4078 22.8495 82.777L22.8065 83.1191ZM29.2711 64.6966C23.2698 66.0352 19.2991 68.2144 17.959 71.1825C16.5463 74.2899 18.1612 78.1641 22.5875 82.4006C24.1197 76.1885 26.3659 70.2654 29.2711 64.6966ZM81.7149 22.5034C60.2531 28.1951 40.8664 43.6685 29.9867 64.1635C37.8146 62.5589 48.8698 62.3566 62.0264 63.6778C66.5416 45.2175 73.6138 30.6229 81.7149 22.5034ZM98.9033 16.1764C96.6074 15.6246 94.1973 15.7112 91.7469 16.454C88.7529 17.3404 85.8044 19.1777 82.9461 21.781C90.4392 19.9392 98.1557 19.2869 105.857 20.002C103.659 18.0637 101.31 16.7549 98.9033 16.1764Z" fill="#2C2C2C"/>
</g>
</g>
<g id="Group_84">
<g id="Group_85">
<path id="Vector_38" d="M40.1731 48.8291C36.0459 44.9778 34.591 41.4162 35.9044 38.5592C38.6483 32.5207 53.4149 30.0769 74.4401 32.2318L74.3881 32.611C53.557 30.4636 38.9281 32.823 36.2569 38.7222C35.0161 41.4401 36.4696 44.8446 40.4665 48.5863L40.1731 48.8291Z" fill="#2C2C2C"/>
</g>
</g>
<g id="Group_86">
<g id="Group_87">
<path id="Vector_39" d="M70.239 26.4037C67.8074 24.135 66.9474 22.009 67.7079 20.3117C69.3474 16.7496 77.9988 15.3037 90.3052 16.5772L90.2533 16.9564C78.095 15.7185 69.5902 17.043 68.0234 20.4658C67.2985 22.015 68.157 23.984 70.4583 26.143L70.239 26.4037Z" fill="#2C2C2C"/>
</g>
</g>
<g id="Group_88">
<g id="Group_89">
<path id="Vector_40" d="M32.33 64.022L31.9597 63.933C36.7939 43.9826 48.5104 28.1541 64.1439 20.4741C77.4231 13.9518 92.4512 13.8426 106.531 20.1251L106.368 20.4776C92.3903 14.2588 77.4823 14.3577 64.2949 20.8238C48.7992 28.4193 37.1375 44.1827 32.33 64.022Z" fill="#2C2C2C"/>
</g>
</g>
<g id="Group_90">
<g id="Group_91">
<path id="Vector_41" d="M18.1381 70.756L17.7678 70.667C22.1481 52.6052 33.4171 37.3349 49.5503 27.7383C66.5563 17.6071 86.7521 14.9015 106.465 20.0703L106.376 20.4406C86.783 15.2614 66.6613 17.9849 49.7472 28.0598C33.7429 37.6091 22.5006 52.7682 18.1381 70.756Z" fill="#2C2C2C"/>
</g>
</g>
</g>
</g>
</g>
</g>
<g id="Clip path group_2">
<mask id="mask1_2_1593" style="mask-type:luminance" maskUnits="userSpaceOnUse" x="15" y="15" width="150" height="149">
<g id="SVGID_2__2">
<path id="Vector_42" d="M38.9042 143.901C47.6991 152.126 59.3138 157.581 72.8408 158.991C59.2768 157.572 47.6991 152.126 38.9042 143.901C37.2175 142.282 34.9622 140.095 33.514 138.297C32.2717 136.784 30.6088 134.74 29.4302 133.125C28.4856 131.84 27.2315 130.05 26.4335 128.644C25.4578 126.999 24.1906 124.776 23.3068 123.075C22.5266 121.595 21.6118 119.534 20.9976 118.015C19.9777 115.577 18.5007 111.618 17.3187 106.595C15.1368 97.257 15.1558 89.1927 15.5619 84.0808C15.843 80.4665 16.5941 75.7117 17.4396 72.1938C18.6515 67.3147 19.2742 65.7017 21.4046 60.2601C22.1177 58.4338 23.2976 56.1322 24.2151 54.4335C25.0511 52.9109 26.2427 50.8863 27.1809 49.4276C30.105 44.9208 32.7013 41.9413 34.5847 39.8088C35.8828 38.319 37.7692 36.5005 39.1887 35.1574C40.4067 34.0009 42.1492 32.618 43.4324 31.5163C45.009 30.1717 47.2952 28.6452 49.0213 27.4933C50.3711 26.6035 52.2083 25.4783 53.6513 24.6892C55.6737 23.6085 58.3775 22.2999 60.4843 21.357C63.6489 19.9241 66.7259 19.0186 69.9777 18.0375C72.4281 17.2947 75.7657 16.6085 78.3211 16.2434C79.9818 16.0158 82.1683 15.7188 83.8393 15.6112C85.5191 15.4666 87.8093 15.3903 89.4906 15.4027C91.0978 15.3973 93.2042 15.4336 94.7759 15.5763C96.9297 15.7414 97.66 15.7994 101.036 16.2583C101.11 16.2761 103.154 16.5715 106.014 17.2198C108.06 17.6723 109.856 18.1824 110.699 18.4242C111.727 18.7104 114.09 19.474 115.628 20.0789C118.14 21.0352 118.706 21.2887 121.322 22.4657C123.298 23.3715 127.085 25.3784 129.38 26.9094C131.137 28.0758 134.12 30.0069 137.145 32.575C140.431 35.3625 143.134 37.9705 145.122 40.2894C147.139 42.6543 149.436 45.3214 152.116 49.4907C155.049 54.0734 156.895 57.964 157.725 59.887C158.584 61.856 160.169 65.5272 161.642 71.1301C162.523 74.4752 163.192 79.0231 163.658 82.4643C163.906 84.365 163.994 86.9321 164.002 88.8534C164.009 90.6177 163.874 92.9744 163.834 94.7668C163.76 96.7073 163.405 99.3247 163.099 101.249C162.768 103.441 162.222 106.365 161.595 108.486C161.056 110.237 160.422 112.552 159.809 114.285C159.17 116.129 158.26 118.613 157.37 120.357C156.6 121.935 155.612 124.087 154.739 125.601C153.785 127.29 152.42 129.547 151.326 131.165C147.671 136.593 143.974 140.404 143.562 140.814C141.219 143.228 137.847 146.178 135.253 148.335C133.648 149.634 131.325 151.152 129.636 152.312C128.314 153.248 126.42 154.282 124.986 155.034C122.927 156.105 120.177 157.442 118.088 158.311C116.432 159.01 114.195 159.843 112.5 160.376C110.05 161.118 106.741 162.008 104.224 162.539C102.03 163.03 97.1508 163.776 92.5705 163.929C90.4373 164.003 84.8408 164.147 78.31 163.126C75.0261 162.61 69.9366 161.622 63.7173 159.305C61.6688 158.538 59.9996 157.824 60.0085 157.787C58.3112 157.026 58.3112 157.026 55.583 155.666C53.4858 154.613 51.0332 153.084 49.9743 152.437C48.5718 151.591 46.7872 150.379 45.5032 149.365C43.3825 147.759 40.8131 145.574 38.9042 143.901Z" fill="white"/>
</g>
</mask>
<g mask="url(#mask1_2_1593)">
<g id="Group_92">
<g id="Group_93">
<path id="Vector_43" d="M72.1848 162.045C69.6668 161.44 66.777 160.589 63.5703 159.426C61.5219 158.66 59.8616 157.908 59.8245 157.899C58.1272 157.139 58.1272 157.139 55.399 155.778C53.3018 154.726 50.8122 153.187 49.7533 152.541C48.2204 151.585 46.4358 150.373 45.2451 149.46C44.3521 148.775 43.4029 147.999 42.4536 147.222C41.1696 146.208 39.8945 145.158 38.7202 144.014L38.6551 143.959C37.0054 142.348 34.7871 140.17 33.293 138.401C32.144 136.989 30.3878 134.843 29.2092 133.228C28.7695 132.613 27.2444 130.484 26.2125 128.748L26.0156 128.426C25.0769 126.79 23.8762 124.778 23.0857 123.178C22.3707 121.753 21.4382 119.766 20.7395 118.11C19.2001 114.41 17.9734 110.551 17.0326 106.643C14.8507 97.3057 14.8785 89.2044 15.2935 84.0554C15.6102 80.293 16.3702 75.5011 17.1801 72.1314C18.392 67.2523 19.0236 65.6023 21.154 60.1606C21.876 58.2974 23.1107 55.9306 23.9734 54.297C24.7545 52.8396 25.9373 50.8521 26.9481 49.2541C29.8811 44.7103 32.4685 41.7678 34.3608 39.5982C35.8146 37.95 37.8935 35.982 39.0019 34.9558C39.8628 34.1443 40.9355 33.2663 41.9713 32.3793C42.4113 32.015 42.8514 31.6508 43.2456 31.3146C44.8221 29.9701 47.0624 28.4717 48.8344 27.2917C50.3679 26.2894 52.1962 25.2012 53.4645 24.4876C55.3491 23.4913 58.0159 22.1738 60.2975 21.1554C63.4991 19.7314 66.5479 18.7799 69.8368 17.8078C72.2412 17.0931 75.6248 16.3787 78.1802 16.0136C80.5697 15.6871 82.3873 15.458 83.6983 15.3814C85.3782 15.2368 87.6313 15.1517 89.3497 15.173C91.1509 15.175 93.2114 15.2394 94.672 15.3554C96.8258 15.5206 97.5561 15.5786 100.969 16.0463C101.043 16.0641 103.087 16.3596 105.947 17.0078C107.993 17.4603 109.79 17.9705 110.632 18.2122C111.66 18.4984 114.023 19.2621 115.599 19.8759C118.111 20.8321 118.676 21.0856 121.292 22.2627C123.268 23.1684 127.083 25.2213 129.388 26.7152C131.144 27.8816 134.127 29.8127 137.189 32.3898C140.504 35.2231 143.178 37.7852 145.167 40.1042C147.183 42.469 149.48 45.1361 152.16 49.3055C155.093 53.8882 156.93 57.8158 157.76 59.7388C158.619 61.7077 160.204 65.379 161.669 71.0189C162.54 74.401 163.266 79.0408 163.684 82.3531C163.873 83.8479 163.994 85.9529 164.029 88.7422C164.049 89.9613 163.97 91.4308 163.909 92.8262C163.878 93.4454 163.846 94.0645 163.824 94.6467C163.773 96.1621 163.534 98.2981 163.088 101.129C162.738 103.238 162.22 106.208 161.575 108.403C161.422 108.875 161.298 109.394 161.136 109.903C160.715 111.33 160.249 112.941 159.827 114.211C159.214 115.944 158.286 118.502 157.379 120.32C157.17 120.701 156.98 121.165 156.754 121.619C156.119 122.955 155.375 124.421 154.739 125.6C153.721 127.392 152.356 129.65 151.326 131.165C147.662 136.63 143.965 140.441 143.553 140.851C141.009 143.452 137.49 146.523 135.243 148.372C134.024 149.372 132.39 150.467 130.948 151.414C130.48 151.732 130.012 152.05 129.589 152.34C128.185 153.295 126.273 154.403 124.931 155.099C123.993 155.578 120.729 157.261 117.987 158.404C117.205 158.725 114.554 159.812 112.362 160.46C109.911 161.203 106.603 162.092 104.049 162.614C101.855 163.105 96.9386 163.843 92.3583 163.995C90.2252 164.07 84.5828 164.241 78.0609 163.183C76.5811 162.984 74.5547 162.615 72.1848 162.045ZM48.9685 151.569C49.3032 151.806 49.6468 152.006 49.9904 152.206C51.0493 152.852 53.5019 154.382 55.5991 155.434C58.2902 156.786 58.2902 156.786 59.9965 157.51C59.9965 157.51 61.6938 158.27 63.7052 159.028C69.9245 161.345 74.9859 162.287 78.261 162.84C84.7458 163.889 90.3883 163.717 92.4844 163.634C97.0647 163.481 101.944 162.735 104.092 162.272C106.618 161.704 109.917 160.852 112.368 160.109C114.523 159.452 117.174 158.365 117.956 158.044C120.652 156.93 123.916 155.246 124.854 154.767C126.197 154.071 128.099 153.001 129.466 152.037C129.889 151.747 130.357 151.428 130.825 151.11C132.267 150.164 133.901 149.068 135.083 148.06C137.33 146.21 140.849 143.139 143.384 140.576C143.796 140.166 147.447 136.382 151.102 130.954C152.132 129.439 153.497 127.182 154.47 125.418C155.097 124.276 155.85 122.773 156.475 121.474C156.702 121.019 156.92 120.602 157.101 120.175C158.008 118.356 158.927 115.835 159.539 114.102C159.999 112.842 160.456 111.268 160.84 109.832C161.002 109.323 161.126 108.804 161.279 108.332C161.915 106.174 162.47 103.213 162.783 101.095C163.229 98.2639 163.459 96.1649 163.51 94.6495C163.523 94.1044 163.555 93.4852 163.595 92.829C163.656 91.4336 163.735 89.9642 163.706 88.7821C163.671 85.9927 163.55 83.8877 163.352 82.4301C162.925 79.1547 162.237 74.5239 161.365 71.1417C159.892 65.5389 158.306 61.8676 157.485 59.9076C156.654 57.9845 154.808 54.094 151.912 49.5202C149.233 45.3509 146.973 42.6926 144.947 40.3648C142.959 38.0459 140.284 35.4838 137.007 32.6593C133.981 30.0912 131.036 28.1689 129.279 27.0026C126.975 25.5086 123.197 23.4646 121.249 22.6048C118.633 21.4278 118.068 21.1743 115.556 20.218C113.98 19.6043 111.654 18.8495 110.626 18.5633C109.783 18.3215 107.987 17.8114 105.941 17.3589C103.118 16.7195 101.074 16.4241 101 16.4063C97.633 15.9104 96.9027 15.8524 94.74 15.7243C93.3165 15.6172 91.219 15.5439 89.4547 15.5507C87.7275 15.5665 85.4744 15.6516 83.8404 15.7681C82.5205 15.8817 80.7488 16.0826 78.3223 16.4003C75.7669 16.7654 72.4292 17.4516 70.0248 18.1663C66.773 19.1473 63.696 20.0529 60.5314 21.4858C58.2868 22.5131 55.583 23.8217 53.7355 24.8269C52.4391 25.4946 50.6478 26.5916 49.1143 27.594C47.3423 28.774 45.102 30.2724 43.5714 31.5888C43.1772 31.9249 42.7372 32.2892 42.2971 32.6534C41.2613 33.5404 40.1886 34.4185 39.3277 35.23C38.2193 36.2562 36.1774 38.2331 34.7237 39.8813C32.8402 42.0138 30.2528 44.9563 27.3198 49.5001C26.3179 51.0611 25.1263 53.0856 24.354 54.506C23.5003 56.1026 22.2656 58.4693 21.5435 60.3326C19.422 65.7372 18.7534 67.3783 17.5875 72.2293C16.7865 75.562 15.9894 80.3449 15.7186 84.0793C15.3125 89.1912 15.2566 97.2466 17.4474 106.547C18.3601 110.409 19.5957 114.231 21.1351 117.931C21.7967 119.578 22.7574 121.611 23.4443 122.99C24.2718 124.599 25.4355 126.602 26.3741 128.238L26.571 128.56C27.6029 130.296 29.128 132.425 29.5677 133.04C30.7464 134.655 32.5025 136.801 33.6604 138.176C35.1175 139.936 37.3358 142.114 38.9855 143.725L39.0506 143.78C40.0843 144.694 41.4156 145.837 42.7559 146.942C49.8451 152.485 58.1927 156.214 67.4 157.996C69.1952 158.35 71.0172 158.592 72.8851 158.806L72.8331 159.185C64.1602 158.275 56.0819 155.707 48.9685 151.569Z" fill="#2C2C2C"/>
</g>
</g>
</g>
</g>
</g>
<g id="Group_94">
<g id="Clip path group_3">
<mask id="mask2_2_1593" style="mask-type:luminance" maskUnits="userSpaceOnUse" x="15" y="15" width="150" height="149">
<g id="SVGID_4_">
<path id="Vector_44" d="M82.0545 163.516C76.8952 162.982 72.7389 162.022 70.1646 161.325C64.1821 159.652 60.6482 158.058 58.0326 156.881C56.7988 156.31 54.4972 155.131 53.188 154.385C51.4981 153.431 49.2869 152.037 47.6697 150.944C46.4893 150.151 44.9269 148.992 43.8103 148.097C42.3027 146.873 40.3568 145.191 38.904 143.901C23.6896 129.63 16.8148 107.061 22.6902 82.7782C31.9759 44.4698 69.4833 16.5088 106.448 20.3012C69.4833 16.5088 31.9759 44.4698 22.6902 82.7782C16.8148 107.061 23.6807 129.667 38.904 143.901C38.904 143.901 36.4279 141.818 32.0849 136.583C30.5065 134.676 28.5698 131.978 27.221 129.93C26.078 128.167 24.6152 125.779 23.73 123.921C22.2615 120.904 20.469 116.792 19.3042 113.652C18.6219 111.765 17.9058 109.203 17.4354 107.249C16.9842 105.378 16.4162 102.853 16.1679 100.952C15.7484 97.4825 15.4107 92.8577 15.3141 89.3484C15.2688 87.4183 15.4296 84.7934 15.6243 82.8426C15.9365 79.5882 16.7659 75.3223 17.4113 72.148C17.8015 70.3617 18.4822 68.0184 19.0856 66.3225C19.7247 64.4785 20.561 61.9768 21.4133 60.2232C22.1841 58.6458 23.1344 56.4849 23.9422 54.9164C24.8597 53.2176 26.1047 50.9709 27.1896 49.3907C29.094 46.519 31.9246 42.8907 34.1267 40.2472C35.3418 38.7767 37.1733 37.0234 38.5469 35.7084C39.9665 34.3653 41.9091 32.6388 43.45 31.4424C46.0741 29.4879 49.6538 26.9797 52.4378 25.3378C53.1726 24.8877 57.2248 22.5323 62.8857 20.3284C64.7909 19.5721 67.3791 18.7449 69.3598 18.1634C70.585 17.792 72.2901 17.3792 73.5715 17.0997C77.3877 16.2151 85.2732 14.8593 95.0246 15.5187C100.228 15.8685 104.134 16.729 106.032 17.1459C109.345 17.8639 113.347 19.1392 115.646 20.005C117.908 20.862 118.761 21.2237 121.303 22.3829C122.397 22.881 124.281 23.843 125.943 24.7516C128.431 26.133 129.713 26.9896 131.665 28.3205C132.846 29.1134 134.362 30.3004 135.525 31.1674C137.087 32.3263 139.015 34.0823 140.431 35.3626C141.558 36.3777 142.938 37.8061 143.964 38.9145C146.091 41.149 148.605 44.3777 150.438 46.855C151.738 48.6168 153.34 51.0778 154.327 52.9994C155.268 54.7921 156.564 57.2189 157.413 59.0679C158.101 60.6042 158.97 62.6932 159.529 64.2769C160.183 66.1184 160.954 68.6147 161.479 70.5036C161.947 72.1435 162.429 74.3746 162.759 76.0989C163.127 77.9892 163.455 80.5357 163.658 82.4645C163.83 84.1903 163.889 86.5545 163.979 88.2995C164.098 90.2475 163.946 92.8353 163.797 94.758C163.684 96.5326 163.346 98.9189 163.149 100.713C162.946 102.701 162.369 105.265 161.869 107.181C160.887 110.941 160.039 114.144 157.578 119.82C156.872 121.452 155.82 123.549 154.975 125.109C154.057 126.808 152.784 129.009 151.699 130.589C150.696 131.993 149.411 133.917 148.343 135.266C147.156 136.782 145.539 138.783 144.193 140.144C141.822 142.512 138.534 145.599 135.977 147.765C134.501 149.017 132.399 150.431 130.801 151.535C129.48 152.471 127.605 153.587 126.199 154.385C124.481 155.343 122.155 156.547 120.398 157.339C115.384 159.62 111.294 160.83 109.239 161.394C108.023 161.728 106.355 162.15 105.082 162.392C103.855 162.607 102.205 162.954 100.987 163.132C99.8897 163.299 98.3861 163.525 97.2321 163.6C96.3922 163.672 95.2293 163.784 94.3983 163.82C92.7362 163.89 90.5201 163.984 88.8388 163.972C87.7575 163.908 84.9208 163.814 82.0545 163.516Z" fill="white"/>
</g>
</mask>
<g mask="url(#mask2_2_1593)">
<g id="Group_95">
<g id="Group_96">
<g id="Group_97">
<g id="Group_98">
<path id="Vector_45" d="M80.28 163.403C77.6508 162.771 75.0975 161.335 72.7592 159.167C55.5987 157.393 40.8904 149.001 31.364 135.509C26.3387 128.386 23.0039 120.26 21.4263 111.342C19.8087 102.101 20.2015 92.4814 22.5422 82.7424L22.6223 82.4092L22.8459 82.6196C37.9671 96.7905 80.2585 111.342 117.141 115.154L117.372 115.17L117.318 115.392C111.06 141.267 99.6895 159.568 87.6585 163.179C85.0971 163.895 82.6499 163.973 80.28 163.403ZM72.8941 158.769L72.9223 158.815C77.4034 162.986 82.2928 164.318 87.4424 162.774C99.2986 159.239 110.551 141.106 116.793 115.462C80.1044 111.657 38.0721 97.1682 22.7391 83.064C20.471 92.6637 20.1228 102.098 21.693 111.21C23.2425 120.082 26.5861 128.172 31.5922 135.211C41.0623 148.611 55.6966 156.985 72.7831 158.742L72.8941 158.769Z" fill="#2C2C2C"/>
</g>
</g>
<g id="Group_99">
<g id="Group_100">
<path id="Vector_46" d="M72.9405 159.876C59.3504 156.61 46.712 151.34 41.2151 146.18L41.4803 145.891C49.092 153.008 70.4325 160.37 89.0076 162.289L88.9557 162.668C83.7223 162.115 78.2358 161.149 72.9405 159.876Z" fill="#2C2C2C"/>
</g>
</g>
<g id="Group_101">
<g id="Group_102">
<path id="Vector_47" d="M77.418 142.229C54.1631 136.64 32.632 127.626 23.1944 118.817L23.4597 118.528C36.5032 130.75 73.0033 143.322 104.846 146.589L104.794 146.968C95.8815 146.079 86.5274 144.419 77.418 142.229Z" fill="#2C2C2C"/>
</g>
</g>
<g id="Group_103">
<g id="Group_104">
<path id="Vector_48" d="M62.9567 158.887C58.7723 157.881 55.0667 155.698 51.9881 152.373C42.0712 141.646 39.6368 120.811 45.4856 96.6387L45.8559 96.7277C40.0427 120.751 42.4298 141.458 52.2445 152.121C57.4969 157.809 64.5843 160.1 72.766 158.816L72.8341 159.185C69.338 159.715 66.0302 159.625 62.9567 158.887Z" fill="#2C2C2C"/>
</g>
</g>
<g id="Group_105">
<g id="Group_106">
<path id="Vector_49" d="M70.6396 161.634C70.6025 161.625 70.6025 161.625 70.5655 161.616C67.7661 160.552 73.5585 132.215 79.345 108.302L79.7153 108.391C71.5066 142.219 68.9675 160.606 70.6915 161.255C70.8397 161.291 71.3477 161.295 72.6373 158.863L72.9809 159.063C71.973 160.975 71.232 161.777 70.6396 161.634Z" fill="#2C2C2C"/>
</g>
</g>
</g>
<g id="Group_107">
<g id="Group_108">
<g id="Group_109">
<path id="Vector_50" d="M80.2822 163.404C77.616 162.763 75.0626 161.327 72.6962 159.113L72.2771 158.738L72.8504 158.797C80.913 159.638 88.9983 158.918 96.841 156.925C105.064 148.953 112.346 134.134 116.913 115.295L116.949 115.147L117.106 115.145C130.485 116.52 141.66 116.307 149.497 114.666C152.475 108.958 154.848 102.83 156.379 96.4609L156.459 96.1276L156.683 96.338C161.453 100.775 163.125 104.898 161.622 108.218C160.209 111.326 156.055 113.617 149.74 114.959C138.716 135.889 118.907 151.653 96.992 157.275C93.9425 160.185 90.7925 162.209 87.5866 163.162C85.0993 163.895 82.6521 163.973 80.2822 163.404ZM73.3806 159.199C77.7388 163.067 82.4609 164.28 87.4816 162.784C90.4756 161.897 93.4241 160.06 96.2824 157.457C88.7893 159.299 81.0728 159.951 73.3806 159.199ZM117.211 115.523C112.733 133.992 105.615 148.615 97.5225 156.697C118.984 151.006 138.371 135.532 149.251 115.037C141.423 116.642 130.396 116.89 117.211 115.523ZM156.678 96.8461C155.146 103.058 152.863 108.972 149.994 114.55C155.996 113.212 159.966 111.032 161.306 108.064C162.719 104.957 161.104 101.083 156.678 96.8461Z" fill="#2C2C2C"/>
</g>
</g>
<g id="Group_110">
<g id="Group_111">
<path id="Vector_51" d="M88.9583 162.669L89.0102 162.289C101.169 163.527 109.673 162.203 111.24 158.78C111.965 157.231 111.106 155.262 108.805 153.103L109.07 152.814C111.502 155.083 112.362 157.209 111.602 158.906C109.916 162.496 101.265 163.942 88.9583 162.669Z" fill="#2C2C2C"/>
</g>
</g>
<g id="Group_112">
<g id="Group_113">
<path id="Vector_52" d="M104.823 147.014L104.875 146.635C125.706 148.782 140.335 146.423 143.006 140.524C144.247 137.806 142.794 134.401 138.797 130.66L139.062 130.371C143.189 134.222 144.644 137.784 143.331 140.641C140.615 146.725 125.848 149.169 104.823 147.014Z" fill="#2C2C2C"/>
</g>
</g>
<g id="Group_114">
<g id="Group_115">
<path id="Vector_53" d="M82.1749 162.37C78.9904 161.605 75.8399 160.534 72.7607 159.167L72.9238 158.815C86.901 165.034 101.809 164.935 114.996 158.469C130.501 150.836 142.154 135.11 146.961 115.27L147.332 115.359C142.497 135.31 130.781 151.138 115.147 158.818C104.811 163.854 93.3581 165.058 82.1749 162.37Z" fill="#2C2C2C"/>
</g>
</g>
<g id="Group_116">
<g id="Group_117">
<path id="Vector_54" d="M74.4634 159.577C73.908 159.443 73.3155 159.301 72.7689 159.13L72.8579 158.76C92.4512 163.939 112.573 161.216 129.487 151.141C145.491 141.591 156.734 126.432 161.096 108.445L161.466 108.534C157.086 126.595 145.817 141.866 129.684 151.462C113.174 161.321 93.6451 164.187 74.4634 159.577Z" fill="#2C2C2C"/>
</g>
</g>
</g>
<g id="Group_118">
<g id="Group_119">
<g id="Group_120">
<path id="Vector_55" d="M72.7204 159.158L72.6922 159.112C57.5059 144.886 52.6923 102.171 61.9779 63.8622L62.0135 63.714L62.1705 63.7126C99.0987 67.4962 141.529 82.1204 156.679 96.3372L156.781 96.4009L156.754 96.512C147.469 134.82 109.806 162.94 72.8033 159.139L72.7204 159.158ZM62.3037 64.1363C53.1085 102.231 57.8363 144.652 72.8834 158.805C109.663 162.553 147.042 134.64 156.348 96.5711C141.181 82.4284 99.0749 67.9213 62.3037 64.1363Z" fill="#2C2C2C"/>
</g>
</g>
<g id="Group_121">
<g id="Group_122">
<path id="Vector_56" d="M108.765 153.094C101.153 145.976 79.8127 138.615 61.2375 136.696L61.2895 136.317C79.9476 138.216 101.39 145.642 109.03 152.805L108.765 153.094Z" fill="#2C2C2C"/>
</g>
</g>
<g id="Group_123">
<g id="Group_124">
<path id="Vector_57" d="M138.823 130.706C125.779 118.484 89.2792 105.912 57.4363 102.645L57.4882 102.266C89.4052 105.55 126.008 118.186 139.116 130.463L138.823 130.706Z" fill="#2C2C2C"/>
</g>
</g>
<g id="Group_125">
<g id="Group_126">
<path id="Vector_58" d="M72.8412 159.148L72.7732 158.779C96.9304 154.91 124.109 120.706 133.359 82.5461L133.729 82.6351C124.49 120.915 97.1554 155.278 72.8412 159.148Z" fill="#2C2C2C"/>
</g>
</g>
<g id="Group_127">
<g id="Group_128">
<path id="Vector_59" d="M72.9803 159.064L72.6367 158.864C78.1684 148.56 90.2512 109.044 99.5101 70.8463L99.8804 70.9353C90.6126 109.17 78.5579 148.732 72.9803 159.064Z" fill="#2C2C2C"/>
</g>
</g>
</g>
<g id="Group_129">
<g id="Group_130">
<g id="Group_131">
<path id="Vector_60" d="M64.4884 157.728C50.8613 154.453 39.3184 146.743 31.3362 135.464C26.311 128.341 22.9762 120.215 21.3985 111.297C19.7721 102.093 20.156 92.5103 22.4878 82.8084C17.7919 78.3896 16.1105 74.3036 17.6047 71.02C20.7741 64.0262 37.8562 61.238 62.2098 63.7228L62.4409 63.7391L62.3875 63.9613C53.1374 102.122 57.9037 144.708 72.9967 158.833L73.4158 159.208L72.8426 159.149C69.9763 158.851 67.1916 158.378 64.4884 157.728ZM61.9267 64.0856C37.8783 61.635 21.0451 64.3655 17.9572 71.183C16.5356 74.3274 18.2067 78.2935 22.8093 82.6115L22.9115 82.6753L22.8848 82.7864C20.553 92.4883 20.1691 102.071 21.7674 111.229C23.3169 120.101 26.6606 128.19 31.6666 135.23C41.0524 148.492 55.4644 156.813 72.3302 158.673C57.4462 144.167 52.8131 102.004 61.9267 64.0856Z" fill="#2C2C2C"/>
</g>
</g>
<g id="Group_132">
<g id="Group_133">
<path id="Vector_61" d="M41.2167 146.181C38.7851 143.912 37.9252 141.786 38.6856 140.089C40.3252 136.527 48.9766 135.081 61.283 136.355L61.231 136.734C49.0727 135.496 40.568 136.82 39.0011 140.243C38.2762 141.792 39.1348 143.761 41.436 145.92L41.2167 146.181Z" fill="#2C2C2C"/>
</g>
</g>
<g id="Group_134">
<g id="Group_135">
<path id="Vector_62" d="M23.2319 118.827C19.1047 114.975 17.6498 111.414 18.9632 108.557C21.7071 102.518 36.4737 100.075 57.4989 102.229L57.4469 102.609C36.6158 100.461 21.9869 102.821 19.3157 108.72C18.0749 111.438 19.5284 114.842 23.5253 118.584L23.2319 118.827Z" fill="#2C2C2C"/>
</g>
</g>
<g id="Group_136">
<g id="Group_137">
<path id="Vector_63" d="M72.7322 159.122C40.9654 144.945 22.6747 102.242 31.9603 63.9331L32.3306 64.0221C23.0806 102.182 41.2958 144.711 72.9234 158.815L72.7322 159.122Z" fill="#2C2C2C"/>
</g>
</g>
<g id="Group_138">
<g id="Group_139">
<path id="Vector_64" d="M72.7608 159.168C33.167 148.712 8.47446 109.013 17.7601 70.7046L18.1304 70.7936C8.88926 108.917 33.4322 148.423 72.8498 158.798L72.7608 159.168Z" fill="#2C2C2C"/>
</g>
</g>
</g>
<g id="Group_140">
<g id="Group_141">
<g id="Group_142">
<path id="Vector_65" d="M85.3182 110.013C58.3972 103.542 33.4448 93.119 22.5441 82.9002L22.4419 82.8365L22.4686 82.7254C31.8002 44.3888 69.4543 16.3064 106.456 20.1077L106.531 20.1255L106.559 20.1715C121.745 34.3972 126.559 77.1127 117.273 115.421L117.237 115.569L117.08 115.571C106.66 114.437 95.8347 112.54 85.3182 110.013ZM22.9026 82.7122C38.0786 96.8179 80.1849 111.325 116.947 115.147C126.142 77.0518 121.415 34.6311 106.367 20.478C69.5875 16.7301 32.1719 44.6349 22.9026 82.7122Z" fill="#2C2C2C"/>
</g>
</g>
<g id="Group_143">
<g id="Group_144">
<path id="Vector_66" d="M94.3975 72.2417C71.1425 66.6524 49.6115 57.6389 40.1739 48.8294L40.4391 48.5406C53.4826 60.7628 89.9828 73.3349 121.826 76.6013L121.774 76.9805C112.824 76.0829 103.47 74.4222 94.3975 72.2417Z" fill="#2C2C2C"/>
</g>
</g>
<g id="Group_145">
<g id="Group_146">
<path id="Vector_67" d="M101.956 40.1375C88.3662 36.8712 75.7278 31.601 70.2308 26.4412L70.4961 26.1524C78.1078 33.2697 99.4483 40.6315 118.023 42.55L117.971 42.9292C112.738 42.3764 107.252 41.4102 101.956 40.1375Z" fill="#2C2C2C"/>
</g>
</g>
<g id="Group_147">
<g id="Group_148">
<path id="Vector_68" d="M45.8561 96.7284L45.4858 96.6394C54.7715 58.3309 82.1057 23.9687 106.383 20.0897L106.451 20.4586C82.2937 24.3273 55.1151 58.531 45.8561 96.7284Z" fill="#2C2C2C"/>
</g>
</g>
<g id="Group_149">
<g id="Group_150">
<path id="Vector_69" d="M79.7167 108.391L79.3464 108.302C88.6142 70.0675 100.669 30.5053 106.246 20.1734L106.59 20.3735C101.058 30.6773 88.9845 70.1565 79.7167 108.391Z" fill="#2C2C2C"/>
</g>
</g>
</g>
<g id="Group_151">
<g id="Group_152">
<g id="Group_153">
<path id="Vector_70" d="M116.821 115.508L116.874 115.285C126.124 77.1251 121.358 34.5384 106.265 20.4135L105.846 20.0386L106.419 20.098C123.626 21.8442 138.362 30.2822 147.888 43.7743C152.914 50.8967 156.249 59.0228 157.826 67.9409C159.453 77.1449 159.069 86.7275 156.737 96.4294C161.433 100.848 163.114 104.934 161.62 108.218C158.451 115.212 141.369 118 117.015 115.515L116.821 115.508ZM106.94 20.5367C121.77 35.1074 126.403 77.2703 117.289 115.189C141.338 117.64 158.171 114.909 161.259 108.092C162.68 104.947 161.009 100.981 156.407 96.6633L156.304 96.5996L156.331 96.4885C158.663 86.7866 159.047 77.204 157.448 68.046C155.899 59.1738 152.555 51.0847 147.549 44.0453C138.218 30.7177 123.806 22.3968 106.94 20.5367Z" fill="#2C2C2C"/>
</g>
</g>
<g id="Group_154">
<g id="Group_155">
<path id="Vector_71" d="M121.801 77.0265L121.853 76.6473C142.684 78.7946 157.313 76.4352 159.984 70.536C161.225 67.8182 159.771 64.4136 155.774 60.672L156.04 60.3832C160.167 64.2345 161.622 67.7961 160.308 70.6531C157.556 76.7286 142.789 79.1724 121.801 77.0265Z" fill="#2C2C2C"/>
</g>
</g>
<g id="Group_156">
<g id="Group_157">
<path id="Vector_72" d="M117.98 42.8923L118.032 42.5131C130.19 43.751 138.695 42.4265 140.262 39.0037C140.987 37.4545 140.128 35.4855 137.827 33.3265L138.092 33.0377C140.524 35.3064 141.384 37.4324 140.623 39.1297C138.938 42.7199 130.286 44.1658 117.98 42.8923Z" fill="#2C2C2C"/>
</g>
</g>
<g id="Group_158">
<g id="Group_159">
<path id="Vector_73" d="M147.304 115.314L146.934 115.225C156.184 77.0644 137.968 34.5355 106.341 20.4318L106.504 20.0793C138.299 34.3016 156.59 77.0052 147.304 115.314Z" fill="#2C2C2C"/>
</g>
</g>
<g id="Group_160">
<g id="Group_161">
<path id="Vector_74" d="M161.456 108.57L161.086 108.481C170.327 70.3581 145.784 30.852 106.366 20.4772L106.455 20.1069C146.095 30.5351 170.751 70.2249 161.456 108.57Z" fill="#2C2C2C"/>
</g>
</g>
</g>
<g id="Group_162">
<g id="Group_163">
<g id="Group_164">
<path id="Vector_75" d="M156.677 96.8463L156.454 96.6359C141.333 82.465 99.0411 67.9135 62.1589 64.1018L61.9278 64.0854L61.9812 63.8632C68.2394 37.988 79.6101 19.687 91.6411 16.0766C96.8736 14.514 101.985 15.8992 106.503 20.0795C123.664 21.8539 138.372 30.2459 147.899 43.738C152.924 50.8604 156.259 58.9865 157.836 67.9046C159.454 77.1456 159.098 86.7741 156.72 96.5041L156.677 96.8463ZM93.9079 69.2257C120.607 75.6427 145.429 85.9564 156.458 96.1278C158.726 86.5281 159.075 77.0937 157.504 67.9815C155.955 59.1094 152.611 51.0202 147.605 43.9808C138.135 30.5806 123.501 22.2064 106.414 20.4498L106.34 20.432L106.312 20.3861C101.831 16.2147 96.9787 14.8918 91.7921 16.4262C79.9359 19.9612 68.6837 38.0948 62.4419 63.739C72.7234 64.8 83.4654 66.7159 93.9079 69.2257Z" fill="#2C2C2C"/>
</g>
</g>
<g id="Group_165">
<g id="Group_166">
<path id="Vector_76" d="M155.776 60.6721C142.733 48.4498 106.232 35.8777 74.3895 32.6113L74.4415 32.2321C106.358 35.5163 142.961 48.1522 156.069 60.4292L155.776 60.6721Z" fill="#2C2C2C"/>
</g>
</g>
<g id="Group_167">
<g id="Group_168">
<path id="Vector_77" d="M137.781 33.3552C130.178 26.2009 108.866 18.8851 90.2534 16.9577L90.3053 16.5785C108.963 18.4777 130.406 25.9032 138.046 33.0665L137.781 33.3552Z" fill="#2C2C2C"/>
</g>
</g>
<g id="Group_169">
<g id="Group_170">
<path id="Vector_78" d="M133.741 82.5991L133.371 82.5101C139.184 58.4864 136.797 37.7796 126.982 27.1168C121.73 21.4283 114.642 19.1373 106.461 20.4219L106.393 20.053C114.703 18.7211 121.893 21.0758 127.238 26.8651C137.184 37.6376 139.618 58.4732 133.741 82.5991Z" fill="#2C2C2C"/>
</g>
</g>
<g id="Group_171">
<g id="Group_172">
<path id="Vector_79" d="M99.8822 70.9353L99.5119 70.8463C107.721 37.0186 110.26 18.6317 108.536 17.9823C108.388 17.9467 107.879 17.9421 106.59 20.374L106.246 20.1739C107.318 18.1597 108.087 17.4045 108.662 17.6209C111.461 18.6854 105.678 46.9857 99.8822 70.9353Z" fill="#2C2C2C"/>
</g>
</g>
</g>
<g id="Group_173">
<g id="Group_174">
<g id="Group_175">
<path id="Vector_80" d="M22.8037 83.1191L22.5801 82.9087C17.8102 78.4721 16.1377 74.349 17.6409 71.0284C19.0536 67.921 23.208 65.6293 29.5233 64.2878C40.5097 43.3484 60.3187 27.5848 82.2338 21.9629C85.2833 19.0531 88.4332 17.0292 91.6391 16.0763C96.8717 14.5137 102.02 15.9078 106.53 20.1252L106.949 20.5001L106.375 20.4406C98.3128 19.5996 90.2275 20.3198 82.3847 22.3126C74.1623 30.2853 66.8797 45.1036 62.3125 63.943L62.2769 64.0912L62.1199 64.0926C48.741 62.718 37.5658 62.9306 29.7291 64.5723C26.7512 70.2803 24.3776 76.4078 22.8468 82.777L22.8037 83.1191ZM29.2684 64.6966C23.2671 66.0352 19.2964 68.2144 17.9563 71.1825C16.5436 74.2899 18.1585 78.1641 22.5847 82.4006C24.117 76.1885 26.3631 70.2654 29.2684 64.6966ZM81.7122 22.5034C60.2504 28.1951 40.8636 43.6685 29.984 64.1635C37.8119 62.5589 48.867 62.3566 62.0237 63.6778C66.5389 45.2175 73.6111 30.6229 81.7122 22.5034ZM98.9006 16.1764C96.6047 15.6246 94.1945 15.7112 91.7442 16.454C88.7501 17.3404 85.8017 19.1777 82.9434 21.781C90.4365 19.9392 98.1529 19.2869 105.854 20.002C103.656 18.0637 101.308 16.7549 98.9006 16.1764Z" fill="#2C2C2C"/>
</g>
</g>
<g id="Group_176">
<g id="Group_177">
<path id="Vector_81" d="M40.1714 48.8289C36.0443 44.9776 34.5893 41.416 35.9027 38.5589C38.6466 32.5205 53.4132 30.0767 74.4384 32.2315L74.3865 32.6107C53.5553 30.4634 38.9265 32.8228 36.2552 38.722C35.0144 41.4398 36.468 44.8444 40.4648 48.586L40.1714 48.8289Z" fill="#2C2C2C"/>
</g>
</g>
<g id="Group_178">
<g id="Group_179">
<path id="Vector_82" d="M70.2382 26.4042C67.8066 24.1355 66.9466 22.0095 67.7071 20.3121C69.3466 16.7501 77.998 15.3042 90.3045 16.5777L90.2525 16.9569C78.0942 15.719 69.5895 17.0435 68.0226 20.4663C67.2977 22.0155 68.1562 23.9845 70.4575 26.1435L70.2382 26.4042Z" fill="#2C2C2C"/>
</g>
</g>
<g id="Group_180">
<g id="Group_181">
<path id="Vector_83" d="M32.3296 64.0215L31.9592 63.9325C36.7934 43.9822 48.51 28.1536 64.1434 20.4736C77.4226 13.9513 92.4507 13.8421 106.53 20.1246L106.367 20.4771C92.3898 14.2584 77.4818 14.3572 64.2944 20.8233C48.7987 28.4189 37.137 44.1823 32.3296 64.0215Z" fill="#2C2C2C"/>
</g>
</g>
<g id="Group_182">
<g id="Group_183">
<path id="Vector_84" d="M18.1373 70.7557L17.767 70.6667C22.1473 52.6049 33.4163 37.3347 49.5496 27.738C66.5555 17.6069 86.7513 14.9012 106.465 20.0701L106.376 20.4404C86.7823 15.2612 66.6606 17.9847 49.7465 28.0595C33.7421 37.6088 22.4998 52.768 18.1373 70.7557Z" fill="#2C2C2C"/>
</g>
</g>
</g>
</g>
</g>
</g>
<g id="Clip path group_4">
<mask id="mask3_2_1593" style="mask-type:luminance" maskUnits="userSpaceOnUse" x="15" y="15" width="150" height="149">
<g id="SVGID_4__2">
<path id="Vector_85" d="M82.0545 163.516C76.8952 162.982 72.7389 162.022 70.1646 161.325C64.1821 159.652 60.6482 158.058 58.0326 156.881C56.7988 156.31 54.4972 155.131 53.188 154.385C51.4981 153.431 49.2869 152.037 47.6697 150.944C46.4893 150.151 44.9269 148.992 43.8103 148.097C42.3027 146.873 40.3568 145.191 38.904 143.901C23.6896 129.63 16.8148 107.061 22.6902 82.7782C31.9759 44.4698 69.4833 16.5088 106.448 20.3012C69.4833 16.5088 31.9759 44.4698 22.6902 82.7782C16.8148 107.061 23.6807 129.667 38.904 143.901C38.904 143.901 36.4279 141.818 32.0849 136.583C30.5065 134.676 28.5698 131.978 27.221 129.93C26.078 128.167 24.6152 125.779 23.73 123.921C22.2615 120.904 20.469 116.792 19.3042 113.652C18.6219 111.765 17.9058 109.203 17.4354 107.249C16.9842 105.378 16.4162 102.853 16.1679 100.952C15.7484 97.4825 15.4107 92.8577 15.3141 89.3484C15.2688 87.4183 15.4296 84.7934 15.6243 82.8426C15.9365 79.5882 16.7659 75.3223 17.4113 72.148C17.8015 70.3617 18.4822 68.0184 19.0856 66.3225C19.7247 64.4785 20.561 61.9768 21.4133 60.2232C22.1841 58.6458 23.1344 56.4849 23.9422 54.9164C24.8597 53.2176 26.1047 50.9709 27.1896 49.3907C29.094 46.519 31.9246 42.8907 34.1267 40.2472C35.3418 38.7767 37.1733 37.0234 38.5469 35.7084C39.9665 34.3653 41.9091 32.6388 43.45 31.4424C46.0741 29.4879 49.6538 26.9797 52.4378 25.3378C53.1726 24.8877 57.2248 22.5323 62.8857 20.3284C64.7909 19.5721 67.3791 18.7449 69.3598 18.1634C70.585 17.792 72.2901 17.3792 73.5715 17.0997C77.3877 16.2151 85.2732 14.8593 95.0246 15.5187C100.228 15.8685 104.134 16.729 106.032 17.1459C109.345 17.8639 113.347 19.1392 115.646 20.005C117.908 20.862 118.761 21.2237 121.303 22.3829C122.397 22.881 124.281 23.843 125.943 24.7516C128.431 26.133 129.713 26.9896 131.665 28.3205C132.846 29.1134 134.362 30.3004 135.525 31.1674C137.087 32.3263 139.015 34.0823 140.431 35.3626C141.558 36.3777 142.938 37.8061 143.964 38.9145C146.091 41.149 148.605 44.3777 150.438 46.855C151.738 48.6168 153.34 51.0778 154.327 52.9994C155.268 54.7921 156.564 57.2189 157.413 59.0679C158.101 60.6042 158.97 62.6932 159.529 64.2769C160.183 66.1184 160.954 68.6147 161.479 70.5036C161.947 72.1435 162.429 74.3746 162.759 76.0989C163.127 77.9892 163.455 80.5357 163.658 82.4645C163.83 84.1903 163.889 86.5545 163.979 88.2995C164.098 90.2475 163.946 92.8353 163.797 94.758C163.684 96.5326 163.346 98.9189 163.149 100.713C162.946 102.701 162.369 105.265 161.869 107.181C160.887 110.941 160.039 114.144 157.578 119.82C156.872 121.452 155.82 123.549 154.975 125.109C154.057 126.808 152.784 129.009 151.699 130.589C150.696 131.993 149.411 133.917 148.343 135.266C147.156 136.782 145.539 138.783 144.193 140.144C141.822 142.512 138.534 145.599 135.977 147.765C134.501 149.017 132.399 150.431 130.801 151.535C129.48 152.471 127.605 153.587 126.199 154.385C124.481 155.343 122.155 156.547 120.398 157.339C115.384 159.62 111.294 160.83 109.239 161.394C108.023 161.728 106.355 162.15 105.082 162.392C103.855 162.607 102.205 162.954 100.987 163.132C99.8897 163.299 98.3861 163.525 97.2321 163.6C96.3922 163.672 95.2293 163.784 94.3983 163.82C92.7362 163.89 90.5201 163.984 88.8388 163.972C87.7575 163.908 84.9208 163.814 82.0545 163.516Z" fill="white"/>
</g>
</mask>
<g mask="url(#mask3_2_1593)">
<g id="Group_184">
<g id="Group_185">
<path id="Vector_86" d="M72.259 162.063C71.4444 161.867 70.7408 161.698 70.1202 161.51C64.1377 159.837 60.5667 158.234 57.9511 157.057C56.7173 156.487 54.4157 155.307 53.1065 154.561C51.3515 153.552 49.1403 152.159 47.5512 151.111C46.2405 150.208 44.7432 149.104 43.6548 148.255C42.2405 147.132 40.2664 145.404 38.7485 144.06C38.7204 144.014 38.6833 144.005 38.6552 143.959C38.0036 143.411 35.5528 141.059 31.8924 136.732C30.4264 135.009 28.5179 132.357 27.0373 130.043C26.3163 128.968 24.5914 126.204 23.5182 123.987C22.2658 121.375 20.3519 117.116 19.0924 113.719C18.382 111.785 17.6466 109.141 17.2236 107.316C16.7635 105.482 16.2044 102.919 15.965 100.981C15.5366 97.549 15.2078 92.8872 15.1112 89.3779C15.0598 87.7988 15.1509 85.6272 15.4303 82.835C15.6563 80.265 16.2885 76.6567 17.2173 72.1404C17.5972 70.2341 18.3238 67.8627 18.9006 66.2779L19.0622 65.7684C19.6834 63.9984 20.4485 61.7929 21.2001 60.1326C21.4358 59.6409 21.6893 59.0751 21.9887 58.4812C22.5683 57.2104 23.2028 55.8745 23.7749 54.7977C24.3382 53.758 25.7463 51.1588 27.0223 49.272C29.4736 45.5917 32.9635 41.3385 33.9964 40.1375C35.2116 38.6669 37.0979 36.8485 38.4167 35.5987C39.2776 34.7872 41.5032 32.6978 43.3568 31.3415C45.7883 29.5365 49.4598 26.9721 52.3905 25.2088C53.1253 24.7587 57.1775 22.4032 62.8754 20.2083C64.8636 19.4327 67.4888 18.6144 69.3495 18.0433C70.5288 17.7 72.068 17.3257 73.5613 16.9796C77.3774 16.095 85.2719 14.7022 95.0513 15.4075C100.292 15.7662 104.198 16.6267 106.059 17.0347C109.372 17.7527 113.411 19.0369 115.673 19.8938C117.972 20.7596 118.788 21.1125 121.329 22.2717C122.461 22.7787 124.308 23.7318 125.969 24.6404C128.458 26.0218 129.74 26.8784 131.692 28.2093C132.603 28.8199 133.728 29.6779 134.687 30.4174C134.984 30.6457 135.282 30.8739 135.552 31.0562C137.077 32.2062 138.977 33.9162 140.449 35.2884C141.576 36.3035 142.984 37.7779 144.019 38.8492C146.211 41.1386 148.781 44.4591 150.484 46.8268C151.654 48.4788 153.33 50.9576 154.41 52.98L154.899 53.8808C155.783 55.5817 156.779 57.4662 157.533 59.0574C158.174 60.4649 159.014 62.5079 159.649 64.2665C160.293 65.988 161.064 68.4842 161.6 70.4931C162.011 72.0412 162.53 74.2811 162.879 76.0885C163.228 77.8958 163.593 80.4512 163.778 82.454C163.918 83.6628 163.95 85.159 164.037 86.59C164.052 87.181 164.103 87.781 164.136 88.298C164.227 90.2 164.121 92.7597 163.982 94.8024C163.883 96.0319 163.721 97.5205 163.54 98.9263C163.462 99.5736 163.394 100.184 163.335 100.757C163.104 102.856 162.509 105.494 162.045 107.263C161.063 111.022 160.206 114.263 157.745 119.938C157.057 121.497 156.033 123.64 155.142 125.227C153.825 127.613 152.714 129.462 151.858 130.744L151.265 131.581C150.371 132.855 149.35 134.333 148.492 135.458C147.187 137.142 145.634 139.041 144.343 140.336C141.862 142.834 138.546 145.876 136.126 147.958C134.999 148.901 133.485 149.987 132.126 150.913C131.704 151.204 131.327 151.466 130.951 151.728C129.299 152.897 126.992 154.184 126.312 154.569C124.41 155.639 122.138 156.778 120.464 157.55C116.812 159.219 113.129 160.527 109.269 161.597C107.463 162.103 106.089 162.438 105.112 162.595C104.78 162.672 104.411 162.74 104.005 162.799C103.018 162.993 101.912 163.197 101.017 163.334C100.325 163.442 98.5816 163.689 97.2617 163.803C96.9847 163.815 96.6988 163.863 96.4218 163.875C95.7389 163.946 95.0189 164.008 94.4279 164.023C92.8858 164.083 90.5956 164.159 88.8684 164.175C87.7693 164.185 84.9326 164.091 82.0663 163.793C78.1084 163.312 74.74 162.659 72.259 162.063ZM39.0226 143.734C40.5317 145.115 42.5146 146.806 43.9289 147.929C44.9804 148.769 46.4776 149.874 47.7883 150.776C49.3404 151.815 51.5515 153.208 53.3066 154.218C54.5788 154.954 56.8804 156.134 58.1141 156.705C60.6927 157.873 64.2178 159.504 70.2092 161.139C72.7835 161.836 76.9309 162.833 82.099 163.331C84.9653 163.628 87.765 163.714 88.8641 163.704C90.5914 163.688 92.8356 163.64 94.3866 163.543C94.9776 163.528 95.6605 163.457 96.3434 163.386C96.6664 163.346 96.9434 163.335 97.2204 163.323C98.5403 163.209 100.247 162.954 100.939 162.846C101.833 162.708 102.94 162.504 103.927 162.31C104.296 162.242 104.701 162.183 105.033 162.106C106.02 161.913 107.347 161.605 109.153 161.099C113.014 160.029 116.66 158.712 120.303 157.081C121.931 156.336 124.211 155.161 126.105 154.127C127.869 153.141 129.569 152.101 130.698 151.314C131.074 151.052 131.45 150.79 131.873 150.5C133.194 149.564 134.737 148.525 135.827 147.573C138.247 145.491 141.563 142.449 144.044 139.951C145.334 138.655 146.85 136.748 148.184 135.11C149.042 133.984 150.054 132.543 150.948 131.27L151.541 130.433C152.426 129.196 153.499 127.339 154.816 124.953C155.67 123.357 156.732 121.222 157.411 119.701C159.862 114.063 160.72 110.822 161.693 107.1C162.157 105.331 162.752 102.693 162.973 100.631C163.033 100.058 163.101 99.4475 163.178 98.8002C163.359 97.3945 163.521 95.9058 163.612 94.7134C163.742 92.7077 163.885 90.1569 163.785 88.2919C163.752 87.7749 163.738 87.1839 163.686 86.5839C163.636 85.1618 163.558 83.6938 163.418 82.485C163.233 80.4822 162.868 77.9268 162.51 76.1565C162.189 74.3951 161.67 72.1552 161.259 70.607C160.714 68.6352 159.943 66.1389 159.3 64.4174C158.665 62.6589 157.824 60.6159 157.174 59.2454C156.449 57.7002 155.461 55.7786 154.569 54.1148L154.08 53.214C152.999 51.1916 151.36 48.7217 150.182 47.1067C148.507 44.7849 145.9 41.4555 143.745 39.175C142.747 38.1126 141.33 36.6752 140.212 35.6231C138.731 34.288 136.831 32.5779 135.306 31.4279C135.045 31.2086 134.738 31.0174 134.441 30.7892C133.482 30.0497 132.348 29.2286 131.437 28.618C129.476 27.3242 128.194 26.4676 125.743 25.0951C124.09 24.1494 122.234 23.2334 121.102 22.7264C118.598 21.5761 117.736 21.2514 115.483 20.3574C113.221 19.5004 109.219 18.2252 105.906 17.5071C104.045 17.0992 100.139 16.2387 94.9356 15.8889C85.2302 15.2014 77.3817 16.566 73.5656 17.4506C72.0723 17.7968 70.533 18.171 69.3908 18.5232C67.5301 19.0944 64.9049 19.9127 62.9538 20.6972C57.2929 22.901 53.2866 25.2283 52.5518 25.6784C49.63 27.4047 45.9955 29.978 43.5641 31.783C41.7475 33.1482 39.5308 35.2005 38.6699 36.012C37.3511 37.2618 35.5107 39.0521 34.2955 40.5227C32.212 42.9988 29.3177 46.7293 27.3673 49.6291C26.0913 51.5159 24.6832 54.1151 24.1288 55.1178C23.5567 56.1946 22.9682 57.5024 22.3515 58.7643C22.0891 59.3671 21.8075 59.8869 21.5629 60.4157C20.7832 62.0301 20.0641 64.2074 19.4428 65.9773L19.2812 66.4869C18.7415 68.0806 18.0237 70.4149 17.6069 72.3124C16.6781 76.8286 16.0458 80.4369 15.8287 82.9699C15.5582 85.7251 15.4672 87.8967 15.5274 89.4388C15.624 92.948 15.9987 97.5817 16.3902 101.005C16.6295 102.943 17.1886 105.506 17.6576 107.303C18.1177 109.137 18.8249 111.735 19.5353 113.669C20.7578 117.057 22.6717 121.316 23.9241 123.928C24.9692 126.099 26.74 128.835 27.4151 129.938C28.296 131.324 29.3443 132.83 30.3541 134.169C21.2129 120.378 18.1598 102.606 22.1787 84.4178C22.2054 84.3067 22.241 84.1586 22.2677 84.0475C22.3567 83.6772 22.4368 83.3439 22.5258 82.9736C22.5347 82.9366 22.5436 82.8995 22.5614 82.8255C31.7997 44.3881 69.4538 16.3057 106.456 20.1071L106.404 20.4863C69.5869 16.7294 32.1255 44.6623 22.8754 82.8226C22.8665 82.8596 22.8576 82.8967 22.8398 82.9707C17.2417 106.263 23.2958 128.987 39.0226 143.734Z" fill="#2C2C2C"/>
</g>
</g>
</g>
</g>
</g>
</g>
</g>
</svg>
